<svg width="46" height="46" viewBox="0 0 46 46" fill="none" xmlns="http://www.w3.org/2000/svg">
<path d="M21.6746 26.4526V22.4845L22.7985 22.4213C24.2191 22.3408 25.7217 23.0148 25.7217 24.5727C25.7217 26.0991 24.3895 26.7099 23.0715 26.5805L21.6746 26.4526ZM20.0362 25.4724C20.0362 26.2111 20.1325 27.3839 19.3291 27.6901V27.7375H21.9793C23.1836 27.7375 24.4527 27.7864 25.5781 27.2403C26.653 26.7257 27.5053 25.6618 27.5053 24.4291C27.5053 22.8507 26.3326 21.891 24.8867 21.5879C25.8022 21.1854 26.4936 20.5762 26.4936 19.4997C26.4936 18.0696 25.2561 17.1699 23.1363 17.1699H19.3291V17.2189C20.1483 17.5235 20.0362 18.6963 20.0362 19.4192V25.4724ZM21.6746 21.4254V18.2685L22.7511 18.1564C23.714 18.0602 24.7415 18.6394 24.7415 19.7475C24.7415 21.0639 23.2483 21.4175 22.205 21.4175L21.6746 21.4254Z" fill="black"/>
<path d="M24.8355 36.583C24.8355 36.583 23.3691 34.7962 19.9423 34.2154C16.6087 33.4388 12.5758 30.1841 11.542 25.6161C10.3439 21.0923 12.3596 16.3618 14.9387 14.1504C17.4989 11.827 19.8997 11.4671 19.8508 11.4355C19.9092 11.505 17.5289 11.9185 15.0334 14.2499C12.508 16.4755 10.6012 21.1429 11.8166 25.5482C12.871 29.9947 16.8202 33.1105 20.0449 33.8334C20.748 33.9409 21.4393 34.1147 22.1095 34.3527C24.384 35.1593 25.2664 36.201 25.2664 36.201L24.8355 36.583Z" fill="black"/>
<path d="M21.2484 36.583C21.2484 36.583 22.7148 34.7962 26.1416 34.2154C29.4752 33.4388 33.5081 30.1841 34.5419 25.6161C35.7399 21.0923 33.7243 16.3618 31.1452 14.1504C28.585 11.827 26.1842 11.4671 26.2331 11.4355C26.1747 11.505 28.555 11.9185 31.0505 14.2499C33.5759 16.4755 35.4827 21.1429 34.2689 25.5482C33.2097 29.9899 29.2605 33.112 26.0437 33.835C25.3406 33.9424 24.6494 34.1163 23.9791 34.3543C21.7046 35.1608 20.8223 36.2026 20.8223 36.2026L21.2484 36.583Z" fill="black"/>
<path d="M18.9572 31.3901C18.9572 31.3901 19.8901 31.7058 20.1995 32.4556C20.4308 32.9937 20.5073 33.5857 20.4204 34.165C20.4204 34.165 19.4844 33.6789 19.1719 33.1753C18.7315 32.4666 18.9572 31.3901 18.9572 31.3901Z" fill="black"/>
<path d="M17.3203 35.4783C17.3203 35.4783 18.2674 35.7671 18.9524 35.3473C19.4557 35.048 19.8652 34.6139 20.1346 34.094C20.1346 34.094 19.0913 33.9362 18.542 34.1603C17.7702 34.476 17.3203 35.4783 17.3203 35.4783Z" fill="black"/>
<path d="M17.5051 30.5884C17.5051 30.5884 18.3511 31.0619 18.5232 31.829C18.6547 32.3873 18.6274 32.9712 18.4443 33.5148C18.4443 33.5148 17.6235 32.8834 17.4072 32.3467C17.1042 31.5891 17.5051 30.5884 17.5051 30.5884Z" fill="black"/>
<path d="M15.2266 34.2515C15.2266 34.2515 16.0884 34.6919 16.8255 34.4094C17.3623 34.2063 17.8315 33.8569 18.1798 33.4008C18.1798 33.4008 17.2012 33.0724 16.6314 33.194C15.8327 33.366 15.2266 34.2563 15.2266 34.2563" fill="black"/>
<path d="M16.1998 29.5483C16.1998 29.5483 16.9369 30.145 16.9716 30.9184C17.003 31.4799 16.8773 32.0391 16.6086 32.5331C16.6086 32.5331 15.9236 31.7865 15.8068 31.2294C15.6489 30.4402 16.1998 29.5483 16.1998 29.5483Z" fill="black"/>
<path d="M13.3789 32.6989C13.3789 32.6989 14.135 33.2703 14.8942 33.1172C15.4468 33.0129 15.9592 32.7559 16.3732 32.3753C16.3732 32.3753 15.4845 31.8907 14.9147 31.9128C14.1145 31.9413 13.3789 32.7021 13.3789 32.7021" fill="black"/>
<path d="M15.0929 28.2852C15.0929 28.2852 15.7022 28.986 15.6043 29.7389C15.5377 30.2868 15.319 30.8052 14.973 31.2352C14.973 31.2352 14.4395 30.3987 14.4205 29.8399C14.3968 29.0507 15.0866 28.2852 15.0866 28.2852" fill="black"/>
<path d="M11.8379 30.8455C11.8379 30.8455 12.4693 31.5258 13.2301 31.5084C13.7824 31.4989 14.321 31.3349 14.7848 31.0349C14.7848 31.0349 14.0082 30.4162 13.4558 30.3404C12.6776 30.2331 11.8379 30.8376 11.8379 30.8376" fill="black"/>
<path d="M14.2138 26.8535C14.2138 26.8535 14.6874 27.6427 14.4601 28.3435C14.3049 28.861 14.008 29.3246 13.603 29.6821C13.603 29.6821 13.2289 28.7839 13.3078 28.2409C13.4167 27.4801 14.2138 26.8535 14.2138 26.8535Z" fill="black"/>
<path d="M10.6338 28.7713C10.6338 28.7713 11.1278 29.5353 11.8634 29.6473C12.3964 29.7345 12.9433 29.6705 13.4418 29.4626C13.4418 29.4626 12.7994 28.7271 12.2785 28.5693C11.5461 28.3325 10.6338 28.7745 10.6338 28.7745" fill="black"/>
<path d="M13.6072 25.2988C13.6072 25.2988 13.9229 26.1322 13.5914 26.7778C13.3535 27.251 12.9877 27.648 12.5355 27.9237C12.5355 27.9237 12.3287 26.9941 12.496 26.4842C12.7312 25.7676 13.6009 25.2988 13.6009 25.2988" fill="black"/>
<path d="M9.82617 26.5394C9.82617 26.5394 10.1734 27.3617 10.8648 27.5938C11.3644 27.7685 11.9029 27.8002 12.4195 27.6853C12.4195 27.6853 11.9239 26.8724 11.4488 26.6199C10.7827 26.2679 9.82617 26.5394 9.82617 26.5394Z" fill="black"/>
<path d="M13.2732 23.6763C13.2732 23.6763 13.4405 24.535 13.0064 25.0969C12.6962 25.513 12.2758 25.8339 11.7926 26.0235C11.7926 26.0235 11.7516 25.0875 11.9962 24.6234C12.3435 23.9715 13.2685 23.6685 13.2685 23.6685" fill="black"/>
<path d="M9.41406 24.2226C9.41406 24.2226 9.60979 25.0749 10.2364 25.4175C10.6891 25.6707 11.2035 25.7926 11.7217 25.7694C11.7217 25.7694 11.3792 24.8997 10.9657 24.5777C10.3816 24.1231 9.41406 24.2226 9.41406 24.2226Z" fill="black"/>
<path d="M13.2269 21.9937C13.2269 21.9937 13.2411 22.8507 12.7265 23.3243C12.3562 23.6729 11.8959 23.9112 11.3975 24.0125C11.3975 24.0125 11.5158 23.1049 11.8347 22.6992C12.2814 22.1294 13.2269 21.9937 13.2269 21.9937Z" fill="black"/>
<path d="M9.40723 21.8721C9.40723 21.8721 9.44984 22.7276 9.99756 23.1648C10.3909 23.487 10.8666 23.6926 11.3708 23.7583C11.3708 23.7583 11.1893 22.8602 10.8436 22.4782C10.3574 21.9415 9.40723 21.8721 9.40723 21.8721Z" fill="black"/>
<path d="M13.4651 20.2846C13.4651 20.2846 13.3341 21.1148 12.7564 21.4842C12.3418 21.7558 11.8598 21.9067 11.3643 21.9198C11.3643 21.9198 11.6342 21.0659 12.0114 20.7281C12.5386 20.2546 13.473 20.2846 13.473 20.2846" fill="black"/>
<path d="M9.80033 19.5156C9.80033 19.5156 9.69615 20.3506 10.1507 20.8652C10.4758 21.2423 10.8993 21.5216 11.374 21.6718C11.374 21.6718 11.3519 20.7736 11.0836 20.3459C10.7063 19.7461 9.80033 19.5156 9.80033 19.5156Z" fill="black"/>
<path d="M14.0026 18.6254C14.0026 18.6254 13.7358 19.4036 13.1139 19.6624C12.6667 19.8544 12.1747 19.9178 11.6934 19.8455C11.6934 19.8455 12.099 19.0658 12.5189 18.8038C13.1013 18.4297 14.0026 18.6254 14.0026 18.6254Z" fill="black"/>
<path d="M10.5948 17.252C10.5948 17.252 10.3549 18.0412 10.7053 18.6126C10.9544 19.0321 11.3158 19.3738 11.7486 19.5991C11.7486 19.5991 11.8796 18.7309 11.6934 18.2716C11.4314 17.6276 10.5885 17.252 10.5885 17.252" fill="black"/>
<path d="M14.8371 17.0706C14.8371 17.0706 14.4472 17.7762 13.8032 17.9198C13.3381 18.0301 12.8514 18.0077 12.3984 17.8551C12.3984 17.8551 12.9209 17.1716 13.3707 16.9901C14.0021 16.7376 14.8371 17.0706 14.8371 17.0706Z" fill="black"/>
<path d="M11.7732 15.1733C11.7732 15.1733 11.407 15.8915 11.6469 16.5055C11.8163 16.953 12.1071 17.3444 12.4866 17.6357C12.4866 17.6357 12.7613 16.8181 12.6587 16.3445C12.5166 15.6784 11.7732 15.1733 11.7732 15.1733Z" fill="black"/>
<path d="M15.9218 15.6945C15.9218 15.6945 15.4246 16.3085 14.779 16.3369C14.3108 16.3647 13.8443 16.2602 13.4326 16.0354C13.4326 16.0354 14.0482 15.4688 14.5217 15.3662C15.1752 15.2304 15.9234 15.6945 15.9234 15.6945" fill="black"/>
<path d="M13.2955 13.3423C13.2955 13.3423 12.822 13.9737 12.9467 14.605C13.0335 15.0662 13.2478 15.4939 13.5654 15.8394C13.5654 15.8394 13.9679 15.0975 13.9506 14.6224C13.9269 13.9563 13.2955 13.3423 13.2955 13.3423Z" fill="black"/>
<path d="M17.2254 14.5405C17.2254 14.5405 16.6398 15.0488 16.0132 14.9667C15.5564 14.9125 15.1239 14.7315 14.7646 14.4442C14.7646 14.4442 15.4686 14.0007 15.9279 13.9849C16.5814 13.9644 17.2254 14.5405 17.2254 14.5405Z" fill="black"/>
<path d="M15.0899 11.8223C15.0899 11.8223 14.5216 12.351 14.5374 12.984C14.5431 13.4433 14.6777 13.8917 14.9257 14.2783C14.9257 14.2783 15.4419 13.6327 15.505 13.1734C15.595 12.5262 15.0899 11.8254 15.0899 11.8254" fill="black"/>
<path d="M18.7009 13.6357C18.7009 13.6357 18.0506 14.0271 17.4587 13.8409C17.0272 13.7115 16.6406 13.4638 16.3428 13.1258C16.3428 13.1258 17.0909 12.8102 17.544 12.8796C18.1753 12.9712 18.7009 13.6357 18.7009 13.6357Z" fill="black"/>
<path d="M17.1021 10.6514C17.1021 10.6514 16.4707 11.0633 16.3728 11.6773C16.3021 12.1223 16.3568 12.5781 16.5307 12.9937C16.5307 12.9937 17.1384 12.4571 17.2788 12.023C17.4761 11.4122 17.1068 10.6514 17.1068 10.6514" fill="black"/>
<path d="M20.2859 13.0095C20.2859 13.0095 19.5914 13.2763 19.0515 12.9953C18.6604 12.7957 18.3325 12.4913 18.1045 12.1161C18.1045 12.1161 18.8795 11.9441 19.3057 12.083C19.9023 12.2787 20.2938 13.0095 20.2938 13.0095" fill="black"/>
<path d="M19.2568 9.85547C19.2568 9.85547 18.5701 10.1459 18.3776 10.722C18.2316 11.1383 18.2048 11.5872 18.3002 12.0179C18.3002 12.0179 18.9789 11.6044 19.1873 11.2082C19.4809 10.6526 19.2568 9.85547 19.2568 9.85547Z" fill="black"/>
<path d="M19.2822 11.6313C19.2822 11.6313 19.7952 11.9217 20.2498 11.7639C20.5818 11.6547 20.8766 11.4545 21.1006 11.1862C21.1006 11.1862 20.5134 10.9621 20.163 11.0205C19.6737 11.1041 19.2822 11.6313 19.2822 11.6313Z" fill="black"/>
<path d="M27.125 31.3901C27.125 31.3901 26.1922 31.7058 25.8828 32.4556C25.6516 32.9937 25.5756 33.5859 25.6634 34.165C25.6634 34.165 26.5994 33.6789 26.912 33.1753C27.3523 32.4666 27.125 31.3901 27.125 31.3901Z" fill="black"/>
<path d="M28.7635 35.4783C28.7635 35.4783 27.8165 35.7671 27.1315 35.3473C26.6277 35.0486 26.218 34.6143 25.9492 34.094C25.9492 34.094 26.991 33.9362 27.5403 34.1603C28.3137 34.476 28.7635 35.4783 28.7635 35.4783Z" fill="black"/>
<path d="M28.5795 30.5884C28.5795 30.5884 27.7334 31.0619 27.5614 31.829C27.4299 32.3873 27.4572 32.9712 27.6403 33.5148C27.6403 33.5148 28.4595 32.8834 28.6757 32.3467C28.9804 31.5891 28.5795 30.5884 28.5795 30.5884Z" fill="black"/>
<path d="M30.855 34.2515C30.855 34.2515 29.9932 34.6919 29.2576 34.4094C28.7208 34.2063 28.2517 33.8569 27.9033 33.4008C27.9033 33.4008 28.8819 33.0724 29.4502 33.194C30.2489 33.366 30.855 34.2563 30.855 34.2563" fill="black"/>
<path d="M29.8842 29.5483C29.8842 29.5483 29.1471 30.145 29.1124 30.9184C29.0801 31.48 29.2058 32.0394 29.4754 32.5331C29.4754 32.5331 30.1589 31.7865 30.2757 31.2294C30.4414 30.4402 29.8842 29.5483 29.8842 29.5483Z" fill="black"/>
<path d="M32.7048 32.6989C32.7048 32.6989 31.9472 33.2703 31.188 33.1172C30.6354 33.0129 30.123 32.7559 29.709 32.3753C29.709 32.3753 30.5992 31.8907 31.1674 31.9128C31.9677 31.9413 32.7048 32.7021 32.7048 32.7021" fill="black"/>
<path d="M30.9908 28.2852C30.9908 28.2852 30.3815 28.986 30.4794 29.7389C30.5452 30.287 30.764 30.8056 31.1108 31.2352C31.1108 31.2352 31.6443 30.3987 31.6616 29.8399C31.6869 29.0507 30.9971 28.2852 30.9971 28.2852" fill="black"/>
<path d="M34.252 30.8455C34.252 30.8455 33.6206 31.5258 32.8598 31.5084C32.308 31.4988 31.7699 31.3348 31.3066 31.0349C31.3066 31.0349 32.0832 30.4162 32.6357 30.3404C33.4138 30.2331 34.252 30.8376 34.252 30.8376" fill="black"/>
<path d="M31.8703 26.8535C31.8703 26.8535 31.3968 27.6427 31.6225 28.3435C31.7785 28.8609 32.0759 29.3245 32.4812 29.6821C32.4812 29.6821 32.8537 28.7839 32.7763 28.2409C32.6674 27.4801 31.8703 26.8535 31.8703 26.8535Z" fill="black"/>
<path d="M35.4502 28.7715C35.4502 28.7715 34.9546 29.5355 34.219 29.6475C33.686 29.7347 33.1392 29.6707 32.6406 29.4629C32.6406 29.4629 33.2846 28.7336 33.8055 28.5663C34.5379 28.3296 35.4502 28.7715 35.4502 28.7715Z" fill="black"/>
<path d="M32.4766 25.2988C32.4766 25.2988 32.1609 26.1322 32.4923 26.7778C32.7295 27.2511 33.0948 27.6481 33.5467 27.9237C33.5467 27.9237 33.7535 26.9941 33.5878 26.4842C33.3526 25.7676 32.4829 25.2988 32.4829 25.2988" fill="black"/>
<path d="M36.2564 26.5394C36.2564 26.5394 35.9092 27.3617 35.2194 27.5938C34.7193 27.7688 34.1802 27.8005 33.6631 27.6853C33.6631 27.6853 34.1603 26.8724 34.6338 26.6199C35.3015 26.2679 36.2564 26.5394 36.2564 26.5394Z" fill="black"/>
<path d="M32.809 23.6761C32.809 23.6761 32.6417 24.5348 33.0758 25.0967C33.3864 25.5124 33.8067 25.8332 34.2896 26.0232C34.2896 26.0232 34.3322 25.0904 34.0828 24.6263C33.7356 23.9744 32.809 23.6714 32.809 23.6714" fill="black"/>
<path d="M36.67 24.2226C36.67 24.2226 36.4742 25.0749 35.8476 25.4175C35.3949 25.6707 34.8805 25.7926 34.3623 25.7694C34.3623 25.7694 34.7032 24.8997 35.1184 24.5777C35.7024 24.1231 36.67 24.2226 36.67 24.2226Z" fill="black"/>
<path d="M32.8565 21.9937C32.8565 21.9937 32.8407 22.8507 33.3569 23.3243C33.7272 23.6729 34.1875 23.9112 34.6859 24.0125C34.6859 24.0125 34.5675 23.1049 34.2471 22.6992C33.8004 22.1294 32.8565 21.9937 32.8565 21.9937Z" fill="black"/>
<path d="M36.6765 21.8721C36.6765 21.8721 36.6323 22.7276 36.0861 23.1648C35.6928 23.487 35.2171 23.6926 34.7129 23.7583C34.7129 23.7583 34.8928 22.8602 35.2385 22.4782C35.7247 21.9415 36.6765 21.8721 36.6765 21.8721Z" fill="black"/>
<path d="M32.6162 20.2846C32.6162 20.2846 32.7472 21.1148 33.3265 21.4842C33.7428 21.7572 34.2273 21.9081 34.725 21.9198C34.725 21.9198 34.4567 21.0659 34.0794 20.7281C33.5522 20.2546 32.6162 20.2846 32.6162 20.2846Z" fill="black"/>
<path d="M36.2833 19.5156C36.2833 19.5156 36.3859 20.3506 35.9329 20.8652C35.6074 21.2426 35.1833 21.5218 34.708 21.6718C34.708 21.6718 34.7301 20.7736 34.9984 20.3459C35.3757 19.7461 36.2833 19.5156 36.2833 19.5156Z" fill="black"/>
<path d="M32.0799 18.6253C32.0799 18.6253 32.3483 19.4035 32.9686 19.6623C33.4159 19.854 33.9078 19.9174 34.3892 19.8454C34.3892 19.8454 33.9835 19.0657 33.5636 18.8037C32.9733 18.4375 32.0752 18.6253 32.0752 18.6253" fill="black"/>
<path d="M35.4876 17.252C35.4876 17.252 35.7291 18.0412 35.3787 18.6126C35.1292 19.0324 34.7673 19.3741 34.3338 19.5991C34.3338 19.5991 34.2028 18.7309 34.3891 18.2716C34.6511 17.6276 35.494 17.252 35.494 17.252" fill="black"/>
<path d="M31.2529 17.0706C31.2529 17.0706 31.6444 17.7762 32.2868 17.9198C32.7524 18.03 33.2396 18.0076 33.6932 17.8551C33.6932 17.8551 33.1691 17.1716 32.7193 16.9901C32.0879 16.7376 31.2529 17.0706 31.2529 17.0706Z" fill="black"/>
<path d="M34.3083 15.1733C34.3083 15.1733 34.6761 15.8915 34.4362 16.5055C34.2666 16.9533 33.9752 17.3448 33.5949 17.6357C33.5949 17.6357 33.3218 16.8181 33.4228 16.3445C33.5664 15.6784 34.3083 15.1733 34.3083 15.1733Z" fill="black"/>
<path d="M30.1621 15.6945C30.1621 15.6945 30.6593 16.3085 31.3049 16.3369C31.7726 16.3646 32.2386 16.2601 32.6497 16.0354C32.6497 16.0354 32.0278 15.4688 31.5685 15.3662C30.915 15.2304 30.1668 15.6945 30.1668 15.6945" fill="black"/>
<path d="M32.789 13.3423C32.789 13.3423 33.2625 13.9737 33.1378 14.605C33.051 15.0662 32.8367 15.4939 32.5191 15.8394C32.5191 15.8394 32.115 15.0975 32.1324 14.6224C32.1576 13.9563 32.789 13.3423 32.789 13.3423Z" fill="black"/>
<path d="M28.8579 14.5405C28.8579 14.5405 29.4419 15.0488 30.0701 14.9667C30.5269 14.9125 30.9594 14.7315 31.3186 14.4442C31.3186 14.4442 30.621 14.0007 30.1474 13.9849C29.494 13.9644 28.8516 14.5405 28.8516 14.5405" fill="black"/>
<path d="M30.9927 11.8223C30.9927 11.8223 31.5609 12.351 31.5451 12.984C31.5396 13.4431 31.4056 13.8914 31.1584 14.2783C31.1584 14.2783 30.6423 13.6327 30.5791 13.1734C30.4892 12.5262 30.9927 11.8254 30.9927 11.8254" fill="black"/>
<path d="M27.3828 13.6357C27.3828 13.6357 28.0331 14.0271 28.625 13.8409C29.0563 13.711 29.4427 13.4633 29.741 13.1258C29.741 13.1258 28.9912 12.8102 28.5398 12.8796C27.9084 12.9712 27.3828 13.6357 27.3828 13.6357Z" fill="black"/>
<path d="M28.9795 10.6514C28.9795 10.6514 29.6108 11.0633 29.7103 11.6773C29.781 12.1223 29.7264 12.5781 29.5524 12.9937C29.5524 12.9937 28.9432 12.4571 28.8043 12.023C28.607 11.4122 28.9747 10.6514 28.9747 10.6514" fill="black"/>
<path d="M25.7979 13.0095C25.7979 13.0095 26.4924 13.2763 27.0306 12.9953C27.4255 12.7976 27.7569 12.493 27.9871 12.1161C27.9871 12.1161 27.2121 11.9441 26.7859 12.083C26.1893 12.2787 25.7979 13.0095 25.7979 13.0095Z" fill="black"/>
<path d="M26.8329 9.85547C26.8329 9.85547 27.5195 10.1459 27.7121 10.722C27.8575 11.1385 27.8843 11.5871 27.7894 12.0179C27.7894 12.0179 27.1107 11.6044 26.9007 11.2082C26.6072 10.6526 26.8329 9.85547 26.8329 9.85547Z" fill="black"/>
<path d="M26.8017 11.6313C26.8017 11.6313 26.2888 11.9217 25.8342 11.7639C25.5018 11.6553 25.2069 11.455 24.9834 11.1862C24.9834 11.1862 25.5706 10.9621 25.9194 11.0205C26.4103 11.1041 26.8017 11.6313 26.8017 11.6313Z" fill="black"/>
<path d="M23.0003 44.9093C10.9191 44.9093 1.0918 35.0805 1.0918 23.0008C1.0918 10.9211 10.9191 1.09229 23.0003 1.09229C35.0816 1.09229 44.9088 10.9196 44.9088 23.0008C44.9088 35.0821 35.08 44.9093 23.0003 44.9093ZM23.0003 1.73944C11.2774 1.73628 1.73579 11.2779 1.73579 23.0008C1.73579 34.7238 11.2742 44.2606 22.9972 44.2606C34.7201 44.2606 44.2601 34.7253 44.2601 23.0008C44.2601 11.2763 34.7248 1.73628 23.0003 1.73628V1.73944Z" fill="black"/>
<path d="M23.0008 46C10.3182 46 0 35.6834 0 23.0008C0 10.3182 10.3182 0 23.0008 0C35.6834 0 46 10.3182 46 23.0008C46 35.6834 35.6834 46 23.0008 46ZM23.0008 0.315685C10.4934 0.315685 0.315685 10.4934 0.315685 23.0008C0.315685 35.5082 10.4902 45.6827 22.9976 45.6827C35.5051 45.6827 45.6796 35.5066 45.6796 23.0008C45.6796 10.4949 35.5145 0.315685 23.0008 0.315685Z" fill="black"/>
<path d="M5.6383 23.0008C5.6383 22.9221 5.61497 22.8452 5.57126 22.7798C5.52756 22.7144 5.46544 22.6634 5.39275 22.6333C5.32007 22.6032 5.2401 22.5953 5.16294 22.6107C5.08578 22.626 5.0149 22.6639 4.95928 22.7195C4.90365 22.7752 4.86576 22.846 4.85042 22.9232C4.83507 23.0003 4.84295 23.0803 4.87305 23.153C4.90316 23.2257 4.95414 23.2878 5.01955 23.3315C5.08496 23.3752 5.16187 23.3986 5.24054 23.3986C5.29277 23.3986 5.3445 23.3883 5.39275 23.3683C5.44101 23.3483 5.48486 23.319 5.5218 23.282C5.55873 23.2451 5.58803 23.2013 5.60802 23.153C5.62801 23.1047 5.6383 23.053 5.6383 23.0008Z" fill="black"/>
<path d="M40.8971 23.0008C40.8971 22.9221 40.8738 22.8452 40.8301 22.7798C40.7863 22.7144 40.7242 22.6634 40.6515 22.6333C40.5789 22.6032 40.4989 22.5953 40.4217 22.6107C40.3446 22.626 40.2737 22.6639 40.2181 22.7195C40.1624 22.7752 40.1246 22.846 40.1092 22.9232C40.0939 23.0003 40.1017 23.0803 40.1318 23.153C40.1619 23.2257 40.2129 23.2878 40.2783 23.3315C40.3438 23.3752 40.4207 23.3986 40.4993 23.3986C40.6048 23.3986 40.706 23.3566 40.7806 23.282C40.8552 23.2075 40.8971 23.1063 40.8971 23.0008Z" fill="black"/>
<path d="M6.99731 29.5274C7.26564 29.2938 7.36192 29.0665 7.24354 28.7382C7.09675 28.3247 6.68794 28.099 6.08971 28.3136C5.49149 28.5283 5.31944 28.9592 5.46624 29.3712C5.58462 29.7042 5.80402 29.8194 6.15916 29.8305L6.19704 30.2267C5.95821 30.2552 5.71703 30.1978 5.51664 30.0647C5.31624 29.9317 5.16969 29.7318 5.1032 29.5006C4.89169 28.9103 5.12214 28.2173 5.95081 27.9222C6.77948 27.627 7.39665 28.0169 7.60658 28.6072C7.70141 28.8284 7.71442 29.0761 7.64328 29.3061C7.57214 29.536 7.42148 29.7331 7.21829 29.8621L6.99731 29.5274Z" fill="black"/>
<path d="M8.20833 32.7996C7.43648 33.2384 6.7767 32.9732 6.46259 32.4224C6.14849 31.8715 6.25582 31.1675 7.02609 30.7287C7.79636 30.2899 8.45614 30.5535 8.77183 31.1044C9.08751 31.6553 8.97387 32.3576 8.20833 32.7996ZM7.22813 31.0949C6.66937 31.4106 6.58571 31.8715 6.79248 32.2361C6.99926 32.6007 7.43964 32.7601 7.99682 32.4429C8.554 32.1256 8.63924 31.6647 8.43089 31.3017C8.22254 30.9386 7.78531 30.7792 7.22813 31.0949Z" fill="black"/>
<path d="M9.99304 33.0035L8.25678 34.3768L8.95128 35.2559L8.64823 35.4959L7.70117 34.2963L9.74049 32.6831L9.99304 33.0035Z" fill="black"/>
<path d="M11.0345 34.2627L11.3296 34.5437L10.1727 35.7638C9.92958 36.0195 9.91538 36.2941 10.1727 36.534C10.4299 36.774 10.6983 36.7456 10.9398 36.4898L12.0983 35.2697L12.3935 35.5507L11.2491 36.7582C10.8182 37.2128 10.291 37.1796 9.90591 36.8134C9.52077 36.4472 9.46237 35.9216 9.8917 35.4702L11.0345 34.2627Z" fill="black"/>
<path d="M12.9969 36.0542L13.3994 36.321L12.9796 38.1188L14.4759 37.036L14.8784 37.3027L13.4389 39.4683L13.1011 39.241L14.0702 37.7826L12.7523 38.7296L12.5123 38.5718L12.8706 36.9934L11.9015 38.4518L11.5605 38.2261L12.9969 36.0542Z" fill="black"/>
<path d="M16.4153 38.0307C16.8083 38.2059 16.9851 38.539 16.802 38.9478C16.7624 39.0386 16.7008 39.1182 16.6229 39.1793C16.5449 39.2405 16.453 39.2813 16.3553 39.2982C16.4453 39.4007 16.5025 39.5278 16.5197 39.6631C16.5368 39.7984 16.5131 39.9357 16.4516 40.0574C16.2527 40.5009 15.8613 40.6304 15.3941 40.4204L14.5117 40.0258L15.574 37.6582L16.4153 38.0307ZM15.3704 39.1088L15.0436 39.8412L15.4998 40.0464C15.7745 40.1695 15.9733 40.1032 16.0807 39.8664C16.188 39.6297 16.1028 39.4371 15.8281 39.314L15.3704 39.1088ZM15.7902 38.1743L15.5282 38.7568L15.9623 38.9509C16.1722 39.0456 16.3316 38.9983 16.4185 38.8057C16.5053 38.6132 16.4327 38.4616 16.2227 38.3685L15.7902 38.1743Z" fill="black"/>
<path d="M17.8774 38.5938L18.2673 38.7153L17.4875 41.1966L17.0977 41.075L17.8774 38.5938Z" fill="black"/>
<path d="M20.0929 39.1449L20.4922 41.8677L20.0834 41.7887L19.9934 41.1147L19.0827 40.9395L18.7496 41.5346L18.3408 41.4557L19.714 39.0723L20.0929 39.1449ZM19.2752 40.5844L19.9461 40.7122L19.8072 39.6168L19.2752 40.5844Z" fill="black"/>
<path d="M22.7637 39.4309L23.1725 39.4151L23.2419 41.0945C23.2561 41.4465 23.444 41.647 23.7912 41.6328C24.1385 41.6186 24.3105 41.4023 24.2947 41.0503L24.2253 39.3709L24.6341 39.3535L24.702 41.0156C24.7288 41.647 24.3389 41.9958 23.8086 42.0179C23.2782 42.04 22.8615 41.7164 22.8331 41.0929L22.7637 39.4309Z" fill="black"/>
<path d="M27.2596 38.8779L27.7804 41.4239L27.3511 41.5123L25.9305 39.9007L26.3062 41.7254L25.9053 41.8091L25.3828 39.2631L25.8121 39.1747L27.2327 40.7926L26.8555 38.96L27.2596 38.8779Z" fill="black"/>
<path d="M28.0283 38.6256L28.415 38.4946L29.2405 40.9585L28.8538 41.088L28.0283 38.6256Z" fill="black"/>
<path d="M30.8759 40.3036L28.9707 38.3258L29.3669 38.1412L30.819 39.6991L30.5507 37.5856L30.9469 37.4009L31.2468 40.13L30.8759 40.3036Z" fill="black"/>
<path d="M32.6735 36.2754L32.885 36.5911L31.938 37.213L32.2884 37.7465L33.0523 37.2461L33.2638 37.5618L32.4999 38.0637L32.9403 38.733L33.9173 38.0922L34.1288 38.4157L32.8093 39.2807L31.3887 37.1072L32.6735 36.2754Z" fill="black"/>
<path d="M35.0896 36.081L36.4455 36.474L36.0856 36.7897L34.7629 36.4061L34.5387 36.6192L35.3153 37.4889L35.0107 37.7604L33.2744 35.8221L33.9531 35.216C34.3178 34.8908 34.7092 34.9098 35.0028 35.2397C35.1146 35.3469 35.1848 35.4903 35.2007 35.6444C35.2166 35.7985 35.1772 35.9532 35.0896 36.081ZM34.6997 35.5143C34.6724 35.4781 34.6374 35.4484 34.5973 35.4274C34.5571 35.4063 34.5128 35.3945 34.4675 35.3927C34.4221 35.3909 34.377 35.3991 34.3353 35.4169C34.2936 35.4347 34.2563 35.4615 34.2262 35.4954L33.8426 35.83L34.2814 36.3241L34.6634 35.9815C34.6999 35.9557 34.7303 35.9221 34.7524 35.8832C34.7745 35.8443 34.7877 35.801 34.7912 35.7564C34.7947 35.7118 34.7883 35.667 34.7725 35.6252C34.7567 35.5833 34.7318 35.5455 34.6997 35.5143Z" fill="black"/>
<path d="M36.2796 33.6771C36.1985 33.6474 36.1105 33.6421 36.0264 33.6617C35.9423 33.6813 35.8657 33.7251 35.8061 33.7876C35.782 33.8154 35.7639 33.8478 35.7529 33.8829C35.7419 33.9179 35.7382 33.9549 35.742 33.9914C35.7459 34.028 35.7572 34.0634 35.7753 34.0954C35.7933 34.1274 35.8178 34.1553 35.8471 34.1775C36.2386 34.5074 36.8794 33.5903 37.4919 34.1064C37.5758 34.1723 37.6451 34.255 37.6952 34.3491C37.7453 34.4433 37.7752 34.547 37.7829 34.6534C37.7907 34.7598 37.7761 34.8666 37.7401 34.9671C37.7041 35.0675 37.6475 35.1593 37.5739 35.2366C37.4428 35.395 37.2594 35.5013 37.0568 35.5364C36.8542 35.5714 36.6457 35.5328 36.469 35.4276L36.5211 35.0346C36.791 35.1656 37.0878 35.2161 37.2788 34.9888C37.3147 34.9506 37.3422 34.9053 37.3597 34.8559C37.3771 34.8064 37.384 34.7539 37.38 34.7016C37.376 34.6493 37.3611 34.5984 37.3364 34.5522C37.3116 34.506 37.2775 34.4655 37.2362 34.4332C36.8479 34.1064 36.2197 35.0251 35.6072 34.5089C35.537 34.4526 35.479 34.3827 35.4365 34.3034C35.394 34.224 35.368 34.1369 35.36 34.0473C35.3521 33.9576 35.3623 33.8673 35.3902 33.7817C35.418 33.6961 35.4628 33.6171 35.522 33.5493C35.6156 33.4356 35.7391 33.3504 35.8785 33.3033C36.018 33.2561 36.1679 33.2489 36.3112 33.2825L36.2796 33.6771Z" fill="black"/>
<path d="M36.5029 32.3261L36.7302 31.9883L38.8848 33.4389L38.6575 33.7782L36.5029 32.3261Z" fill="black"/>
<path d="M37.0928 31.4517L37.9609 29.8022L38.3034 29.9822L37.9672 30.6214L39.9245 31.6522L39.7351 32.0136L37.7762 30.9829L37.4384 31.6269L37.0928 31.4517Z" fill="black"/>
<path d="M38.3034 28.9529L39.492 28.8314L38.6444 27.9869L38.7896 27.5781L39.9418 28.773L40.9915 29.1439L40.8557 29.5291L39.8061 29.1581L38.1582 29.3586L38.3034 28.9529Z" fill="black"/>
<path d="M5.10324 16.5072C5.24687 16.1015 5.56414 15.8995 5.98715 16.0495C6.0806 16.0817 6.16458 16.1367 6.23153 16.2094C6.29848 16.2821 6.3463 16.3704 6.37071 16.4662C6.46536 16.3681 6.58723 16.3006 6.72059 16.2725C6.85395 16.2444 6.99268 16.2568 7.11888 16.3083C7.5782 16.4662 7.73763 16.8513 7.56558 17.3343L7.24989 18.2435L4.80176 17.3722L5.10324 16.5072ZM5.29423 17.1196L5.89561 17.3343L6.05345 16.886C6.13079 16.6698 6.07239 16.5135 5.87351 16.4425C5.67463 16.3714 5.52941 16.4551 5.45207 16.6713L5.29423 17.1196ZM6.26022 17.4637L7.01471 17.732L7.1836 17.2585C7.28462 16.9744 7.20412 16.785 6.95946 16.6934C6.71481 16.6019 6.52855 16.7061 6.42753 16.9902L6.26022 17.4637Z" fill="black"/>
<path d="M6.6037 13.3252L9.31228 13.8445L9.09761 14.206L8.42994 14.0686L7.96588 14.8721L8.41889 15.3819L8.20738 15.7402L6.41113 13.6598L6.6037 13.3252ZM7.69281 14.5722L8.03533 13.9802L6.95411 13.7514L7.69281 14.5722Z" fill="black"/>
<path d="M9.7865 11.3364L11.1818 11.54L10.8661 11.9077L9.50397 11.7073L9.31298 11.9362L10.2001 12.6922L9.93488 13.0079L7.94922 11.319L8.53955 10.6261C8.85523 10.2536 9.24668 10.2204 9.58289 10.5061C9.71062 10.5972 9.80143 10.7311 9.8388 10.8834C9.87616 11.0358 9.85761 11.1965 9.7865 11.3364ZM9.31298 10.8234C9.28114 10.7906 9.24234 10.7654 9.19945 10.7497C9.15656 10.734 9.11069 10.7281 9.06521 10.7325C9.01974 10.7369 8.97584 10.7514 8.93676 10.7751C8.89768 10.7987 8.86443 10.8309 8.83945 10.8691L8.50798 11.259L9.0115 11.6805L9.34297 11.2906C9.37539 11.2599 9.40066 11.2224 9.41699 11.1808C9.43331 11.1392 9.44029 11.0945 9.43743 11.05C9.43457 11.0054 9.42194 10.962 9.40043 10.9228C9.37892 10.8836 9.34907 10.8497 9.31298 10.8234Z" fill="black"/>
<path d="M11.7701 7.60303L13.4053 9.62815L13.0644 9.90437L11.0645 9.11989L12.2373 10.5752L11.9216 10.8325L10.2832 8.80579L10.6241 8.52325L12.6272 9.31246L11.4528 7.86031L11.7701 7.60303Z" fill="black"/>
<path d="M14.1597 6.13818L16.1864 7.99915L15.8202 8.19645L15.3246 7.72292L14.5069 8.1633L14.6237 8.83887L14.2575 9.03617L13.8203 6.32128L14.1597 6.13818ZM14.4327 7.77185L15.0341 7.4467L14.2354 6.68432L14.4327 7.77185Z" fill="black"/>
<path d="M17.9054 6.11493L18.985 7.02411L18.5241 7.17248L17.4713 6.2854L17.1856 6.37695L17.5424 7.48185L17.1525 7.60654L16.3633 5.13158L17.2298 4.85377C17.7034 4.69593 18.0459 4.88061 18.1769 5.30205C18.2368 5.44756 18.2424 5.60978 18.1925 5.75905C18.1427 5.90832 18.0408 6.03465 17.9054 6.11493ZM17.7807 5.43305C17.7706 5.3885 17.7507 5.34677 17.7223 5.31092C17.694 5.27507 17.658 5.24602 17.617 5.22589C17.576 5.20576 17.531 5.19506 17.4853 5.19459C17.4396 5.19411 17.3944 5.20386 17.353 5.22312L16.8652 5.38097L17.0673 6.01234L17.555 5.85449C17.5993 5.84459 17.6409 5.82526 17.677 5.79781C17.7132 5.77037 17.7429 5.73546 17.7644 5.69547C17.7858 5.65547 17.7983 5.61133 17.8012 5.56604C17.804 5.52076 17.797 5.4754 17.7807 5.43305Z" fill="black"/>
<path d="M20.4262 4.13882C21.045 4.0599 21.6653 4.40715 21.7773 5.27528C21.8894 6.14341 21.3748 6.63746 20.7561 6.71638L19.9985 6.81424L19.667 4.23668L20.4262 4.13882ZM20.1216 4.56657L20.3615 6.3786L20.5967 6.34861C21.0465 6.29179 21.4632 6.03293 21.3717 5.32895C21.2801 4.62497 20.8145 4.47976 20.3647 4.53974L20.1216 4.56657Z" fill="black"/>
<path d="M26.2016 5.08538C26.1164 4.7397 25.9586 4.55029 25.6082 4.50294C25.1741 4.44454 24.7874 4.7034 24.7037 5.33319C24.6201 5.96298 24.9231 6.31497 25.3572 6.37337C25.7076 6.41914 25.9096 6.27867 26.0833 5.96772L26.4526 6.11451C26.369 6.34015 26.2077 6.5286 25.9977 6.64605C25.7877 6.7635 25.5427 6.80225 25.3067 6.75535C24.6848 6.67169 24.1734 6.15081 24.2902 5.27794C24.407 4.40508 25.0383 4.0373 25.6602 4.12096C25.9002 4.13804 26.1262 4.24005 26.2977 4.40869C26.4692 4.57733 26.5751 4.80157 26.5962 5.04118L26.2016 5.08538Z" fill="black"/>
<path d="M29.9901 6.6515C29.6965 7.48806 29.0257 7.72167 28.4259 7.51174C27.8261 7.30181 27.4472 6.70201 27.7392 5.86387C28.0312 5.02572 28.7037 4.7937 29.3035 5.00205C29.9033 5.2104 30.2789 5.81336 29.9901 6.6515ZM28.1291 5.99803C27.9176 6.60415 28.1544 7.00507 28.5505 7.14397C28.9467 7.28287 29.3824 7.11714 29.5939 6.5126C29.8054 5.90806 29.5686 5.50399 29.1724 5.36509C28.7763 5.22618 28.3406 5.39508 28.1291 5.99803Z" fill="black"/>
<path d="M32.2349 6.35149L31.1379 8.27401L32.1118 8.82961L31.9208 9.16424L30.5918 8.40659L31.8845 6.15576L32.2349 6.35149Z" fill="black"/>
<path d="M34.8453 8.10054L33.45 9.81629L34.3181 10.5234L34.075 10.8233L32.8896 9.85733L34.5296 7.84326L34.8453 8.10054Z" fill="black"/>
<path d="M37.8822 11.1029L37.5902 11.3649L36.8452 10.5126L36.3717 10.934L36.9731 11.6206L36.6826 11.8747L36.0797 11.1881L35.4767 11.7153L36.247 12.5961L35.9566 12.8502L34.918 11.6632L36.8673 9.94434L37.8822 11.1029Z" fill="black"/>
<path d="M37.8047 15.1088C37.6699 15.1039 37.5388 15.0635 37.4246 14.9917C37.3105 14.9199 37.2172 14.8193 37.1543 14.7C36.8387 14.176 36.9113 13.472 37.6973 13.0079C38.4834 12.5439 39.1447 12.8296 39.4604 13.3678C39.5938 13.5675 39.6512 13.8083 39.6223 14.0466C39.5933 14.2849 39.4799 14.505 39.3026 14.6669L39.0122 14.4017C39.2584 14.1113 39.29 13.8287 39.1337 13.5636C38.9064 13.18 38.4644 13.0442 37.9215 13.3662C37.3785 13.6882 37.2901 14.1397 37.5095 14.5232C37.5479 14.5947 37.6 14.6579 37.6629 14.7091C37.7259 14.7603 37.7983 14.7985 37.8761 14.8216C37.9539 14.8446 38.0355 14.852 38.1161 14.8433C38.1968 14.8347 38.2749 14.8101 38.3461 14.771L38.0888 14.3354L38.4045 14.1523L38.8685 14.9415L37.7242 15.606L37.5426 15.2903L37.8047 15.1088Z" fill="black"/>
<path d="M41.1747 17.2678L40.8117 17.4003L40.4249 16.3365L39.8236 16.5543L40.1393 17.413L39.7762 17.5456L39.4605 16.6869L38.706 16.9615L39.107 18.0664L38.7439 18.199L38.2041 16.7169L40.6459 15.8267L41.1747 17.2678Z" fill="black"/>
</svg>
