<svg width="261" height="53" viewBox="0 0 261 53" fill="none" xmlns="http://www.w3.org/2000/svg">
<path d="M64.5189 17.8335L66.397 17.8983C66.6561 17.8983 68.0161 17.8335 68.9228 17.8335C70.2828 17.8335 71.3191 18.5459 71.3191 19.7764C71.3191 20.7479 70.6714 21.525 69.3761 21.7193V21.7841C70.6714 21.9136 71.6429 22.7555 71.6429 23.9213C71.6429 24.828 70.9952 26.1233 68.599 26.1233C68.2752 26.1233 66.5913 26.0585 66.2027 26.0585L64.4541 26.1233V25.6699L65.1017 25.5404C65.5551 25.4756 65.6846 25.3461 65.6846 24.9575C65.6846 24.9575 65.7494 23.8565 65.7494 21.9784C65.7494 20.0355 65.6846 18.9992 65.6846 18.9992C65.6846 18.6107 65.5551 18.4811 65.1017 18.4164L64.4541 18.2868V17.8335H64.5189ZM67.0447 21.4603C67.0447 21.4603 67.5628 21.5898 68.1456 21.5898C69.5057 21.5898 69.959 20.8126 69.959 19.9059C69.959 18.9345 69.3761 18.3516 68.2104 18.3516C67.6275 18.3516 67.3037 18.4164 67.0447 18.4164V21.4603ZM68.4695 25.6699C69.5704 25.6699 70.2828 25.0223 70.2828 23.9213C70.2828 22.8203 69.7 22.1079 67.9513 22.1079H67.0447C67.0447 23.2089 67.0447 24.828 67.0447 24.828C67.1094 25.5404 67.498 25.6699 68.4695 25.6699Z" fill="black"/>
<path d="M72.9385 24.828C72.9385 23.468 74.428 23.0146 76.0471 22.8851V22.108C76.0471 21.3955 75.9176 20.6831 75.0109 20.6831C74.6871 20.6831 74.2985 20.7479 74.2985 21.0717V22.0432L73.9099 22.2375C73.4566 22.1727 73.0032 21.8489 73.0032 21.3308C73.0032 20.6184 73.9747 20.165 75.27 20.165C76.5005 20.165 77.2129 20.6831 77.2129 21.9784C77.2129 22.8204 77.1481 24.1156 77.1481 24.6985C77.1481 25.1518 77.3424 25.3461 77.6662 25.3461C77.8605 25.3461 78.0548 25.2814 78.1843 25.1518L78.3139 25.4109C78.1196 25.7995 77.6015 26.0585 77.1481 26.0585C76.5005 26.0585 76.1119 25.7347 76.0471 25.1518C75.9176 25.4757 75.3995 26.0585 74.5576 26.0585C73.5861 26.2528 72.9385 25.6052 72.9385 24.828ZM75.0757 25.4757C75.529 25.4757 76.0471 25.1518 76.0471 24.5042V23.2089C75.27 23.3385 74.1042 23.468 74.1042 24.5042C74.169 25.0871 74.5576 25.4757 75.0757 25.4757Z" fill="black"/>
<path d="M80.7749 21.59C81.0988 21.1367 81.8112 20.3595 82.4588 20.3595C83.0417 20.3595 83.3655 20.7481 83.3655 21.1367C83.3655 21.4605 83.1064 21.7843 82.7179 21.9786H82.5883C82.5883 21.9786 81.9407 21.3957 81.8112 21.3957C81.6169 21.5253 80.9692 21.8491 80.8397 21.9786V25.152C80.8397 25.5406 80.9692 25.6701 81.4226 25.7349L81.9407 25.7997V26.1882L80.2568 26.1235L78.832 26.1882V25.7997L79.0911 25.7349C79.4797 25.6054 79.674 25.5406 79.674 25.152V22.6262C79.674 21.8491 79.6092 21.5253 79.3501 21.4605L78.8968 21.2662V21.0071L80.4511 20.23H80.7749L80.7102 21.5253L80.7749 21.59Z" fill="black"/>
<path d="M85.9562 25.152C85.9562 25.5406 86.0858 25.6054 86.4743 25.7349L86.7982 25.7997V26.1882L85.3086 26.1235L83.8838 26.1882V25.7997L84.1428 25.7349C84.5314 25.6054 84.7257 25.5406 84.7257 25.152V22.5615C84.7257 21.7843 84.661 21.5253 84.4019 21.3957L83.9486 21.2014V21.0071L85.5029 20.23H85.8267L85.7619 21.2662H85.8915C86.0858 20.9424 86.7334 20.2947 87.7049 20.2947C88.9354 20.2947 89.583 20.9424 89.583 22.2377C89.583 23.2091 89.583 25.0873 89.583 25.0873C89.583 25.4758 89.7125 25.5406 90.1659 25.6701L90.4897 25.7349V26.1235L89.0001 26.0587L87.5106 26.1235V25.7349L87.8344 25.6701C88.223 25.5406 88.3525 25.5406 88.4173 24.8282C88.4173 24.6339 88.4173 23.5977 88.4173 22.9501C88.4173 22.4319 88.4172 21.9138 88.223 21.5253C88.0287 21.2014 87.7048 21.0071 87.2515 21.0071C86.1505 21.0071 86.021 21.7195 86.021 22.7558V25.152H85.9562Z" fill="black"/>
<path d="M91.1367 24.828C91.1367 23.468 92.6263 23.0146 94.2454 22.8851V22.108C94.2454 21.3955 94.1159 20.6831 93.2092 20.6831C92.8853 20.6831 92.4968 20.7479 92.4968 21.0717V22.0432L92.1082 22.2375C91.6548 22.1727 91.2015 21.8489 91.2015 21.3308C91.2015 20.6184 92.1729 20.165 93.4682 20.165C94.6987 20.165 95.4111 20.6831 95.4111 21.9784C95.4111 22.8204 95.3464 24.1156 95.3464 24.6985C95.3464 25.1518 95.5407 25.3461 95.8645 25.3461C96.0588 25.3461 96.2531 25.2814 96.3826 25.1518L96.5121 25.4109C96.3178 25.7995 95.7997 26.0585 95.3464 26.0585C94.6987 26.0585 94.3101 25.7347 94.2454 25.1518C94.1159 25.4757 93.5977 26.0585 92.7558 26.0585C91.7844 26.2528 91.1367 25.6052 91.1367 24.828ZM93.2739 25.4757C93.7273 25.4757 94.2454 25.1518 94.2454 24.5042V23.2089C93.4682 23.3385 92.3025 23.468 92.3025 24.5042C92.3672 25.0871 92.7558 25.4757 93.2739 25.4757Z" fill="black"/>
<path d="M98.9742 21.59C99.298 21.1367 100.01 20.3595 100.658 20.3595C101.241 20.3595 101.565 20.7481 101.565 21.1367C101.565 21.4605 101.306 21.7843 100.917 21.9786H100.788C100.788 21.9786 100.14 21.3957 100.01 21.3957C99.8161 21.5253 99.1685 21.8491 99.0389 21.9786V25.152C99.0389 25.5406 99.1685 25.6701 99.6218 25.7349L100.14 25.7997V26.1882L98.4561 26.1235L97.0312 26.1882V25.7997L97.2903 25.7349C97.6789 25.6054 97.8732 25.5406 97.8732 25.152V22.6262C97.8732 21.8491 97.8084 21.5253 97.5494 21.4605L97.096 21.2662V21.0071L98.6503 20.23H98.9742L98.9094 21.5253L98.9742 21.59Z" fill="black"/>
<path d="M107.652 24.569C107.652 25.2814 107.717 25.411 108.17 25.4757L108.559 25.5405V25.8643L106.81 26.1234H106.486V25.2814H106.422C105.968 25.9938 105.256 26.1881 104.608 26.1881C103.313 26.1881 102.212 25.1519 102.212 23.2738C102.212 21.5899 103.378 20.2299 104.997 20.2299C105.58 20.2299 106.098 20.4242 106.422 20.5537V19.1936C106.422 18.4165 106.357 18.0927 106.098 18.0279L105.644 17.8336V17.6393L107.328 17.2507H107.652C107.652 17.2507 107.587 18.9346 107.587 20.4889V24.569H107.652ZM106.486 24.4395V22.1728C106.486 21.2661 105.968 20.8127 105.191 20.8127C103.896 20.8127 103.507 22.108 103.507 23.209C103.507 24.6986 104.284 25.411 105.191 25.411C106.098 25.411 106.486 24.8929 106.486 24.4395Z" fill="black"/>
<path d="M109.659 23.2738V22.4319H112.509V23.2738H109.659Z" fill="black"/>
<path d="M118.856 25.4758C119.309 25.4758 119.698 25.411 120.151 25.2815L120.863 23.4681H121.317C121.317 23.4681 121.252 24.3748 121.252 25.5405C120.993 25.67 119.762 26.1882 118.208 26.1882C115.553 26.1882 113.934 24.4395 113.934 21.9785C113.934 19.5822 115.747 17.7041 118.338 17.7041C119.244 17.7041 120.021 17.8984 120.41 18.0279L121.317 17.8984C121.252 18.287 121.122 19.5175 121.058 20.3594H120.604L120.345 19.647C120.021 18.7403 119.309 18.3517 118.273 18.3517C116.783 18.3517 115.294 19.2584 115.294 21.7195C115.358 24.0509 116.654 25.4758 118.856 25.4758Z" fill="black"/>
<path d="M122.547 23.3386C122.547 21.6547 123.648 20.2947 125.461 20.2947C126.821 20.2947 128.181 21.2661 128.181 23.209C128.181 25.0224 127.016 26.2529 125.267 26.2529C123.972 26.2529 122.547 25.3462 122.547 23.3386ZM126.951 23.4033C126.951 21.5252 126.174 20.8128 125.396 20.8128C124.166 20.8128 123.842 22.1728 123.842 23.209C123.842 25.0224 124.619 25.7996 125.396 25.7996C126.692 25.7996 126.951 24.4396 126.951 23.4033Z" fill="black"/>
<path d="M131.161 25.1521C131.161 25.5407 131.291 25.6054 131.744 25.735L132.133 25.7997V26.1883L130.578 26.1235L129.089 26.1883V25.7997L129.413 25.735C129.866 25.6702 129.996 25.5407 129.996 25.1521V19.2586C129.996 18.4814 129.931 18.1576 129.672 18.0928L129.218 17.8985V17.7043L130.902 17.3157H131.226C131.226 17.3157 131.161 19.2586 131.161 20.8777V25.1521Z" fill="black"/>
<path d="M138.609 25.4757L138.998 25.5405V25.8643L137.249 26.1233H136.925V25.2814H136.861C136.666 25.6052 136.083 26.1881 135.177 26.1881C133.946 26.1881 133.363 25.4757 133.363 24.2452C133.363 23.2737 133.363 21.5899 133.363 21.5899C133.363 21.2013 133.234 21.0718 132.845 20.9422L132.521 20.8775V20.4889L133.946 20.4241L134.594 20.3594C134.529 21.007 134.529 22.4966 134.529 23.4033C134.529 24.7633 134.723 25.4109 135.695 25.4109C136.731 25.4109 136.861 24.6338 136.861 23.5328V21.6546C136.861 21.2661 136.796 21.0718 136.343 21.007L135.954 20.9422V20.5537L137.444 20.4889L138.091 20.4241C138.091 20.4241 138.026 21.5251 138.026 22.4966V24.569C138.091 25.2814 138.156 25.4109 138.609 25.4757Z" fill="black"/>
<path d="M145.28 21.2662C145.474 20.8776 146.122 20.2947 147.093 20.2947C148.324 20.2947 148.971 20.9424 148.971 22.2377C148.971 23.2091 148.971 25.0873 148.971 25.0873C148.971 25.4111 149.101 25.5406 149.49 25.6701L149.813 25.7349V26.1235L148.324 26.0587L146.834 26.1235V25.7349L147.158 25.6701C147.676 25.5406 147.741 25.2816 147.741 23.9863V22.9501C147.741 22.1081 147.676 21.0071 146.575 21.0071C145.604 21.0071 145.345 21.59 145.345 22.8205V25.152C145.345 25.5406 145.474 25.6054 145.863 25.7349L146.187 25.7997V26.1882L144.697 26.1235L143.272 26.1882V25.7997L143.531 25.7349C144.049 25.5406 144.114 25.3463 144.114 24.051V22.9501C144.114 22.1081 144.049 21.0071 142.948 21.0071C141.912 21.0071 141.718 21.6548 141.718 22.8205V25.0873C141.718 25.4758 141.847 25.5406 142.236 25.6701L142.56 25.7349V26.1235L141.07 26.0587L139.646 26.1235V25.7349L139.905 25.6701C140.293 25.5406 140.487 25.4758 140.487 25.0873V22.4967C140.487 21.7195 140.423 21.4605 140.164 21.331L139.71 21.1367V21.0071L141.265 20.23H141.588L141.524 21.2662H141.653C141.847 20.9424 142.495 20.2947 143.467 20.2947C144.308 20.2947 144.891 20.6186 145.15 21.2662H145.28Z" fill="black"/>
<path d="M152.079 21.2663C152.403 20.6186 153.116 20.2948 153.893 20.2948C155.123 20.2948 156.354 21.2663 156.354 23.2092C156.354 24.7635 155.253 26.2531 153.439 26.2531C152.662 26.2531 152.079 25.994 151.82 25.8645C151.626 25.9293 151.432 26.0588 151.237 26.1883L150.914 26.1235C150.914 25.6702 150.914 25.0226 150.914 24.2454V18.6757C150.914 18.3519 150.849 18.1576 150.655 18.0928L150.201 17.8985V17.7043L151.82 17.3157H152.144V19.8415C152.144 20.5539 152.015 21.331 152.015 21.331L152.079 21.2663ZM152.144 22.1082V24.4397C152.144 25.3464 152.468 25.7997 153.439 25.7997C154.476 25.7997 155.123 25.0226 155.123 23.4035C155.123 21.8491 154.346 21.072 153.375 21.072C152.468 21.072 152.144 21.6548 152.144 22.1082Z" fill="black"/>
<path d="M158.167 22.5614C158.167 21.7842 158.102 21.4604 157.779 21.3957L157.325 21.2014V21.0071L158.944 20.2299H159.398C159.398 20.2299 159.398 21.0718 159.398 22.2376V25.152C159.398 25.5405 159.527 25.6053 159.916 25.7348L160.304 25.7996V26.1882L158.815 26.1234L157.325 26.1882V25.7996L157.649 25.7348C158.102 25.6053 158.232 25.5405 158.232 25.152V22.5614H158.167ZM158.685 17.4451C159.203 17.4451 159.592 17.8337 159.592 18.3518C159.592 18.8699 159.203 19.2585 158.685 19.2585C158.167 19.2585 157.779 18.8699 157.779 18.3518C157.843 17.8337 158.232 17.4451 158.685 17.4451Z" fill="black"/>
<path d="M161.082 24.828C161.082 23.468 162.572 23.0146 164.191 22.8851V22.108C164.191 21.3955 164.061 20.6831 163.154 20.6831C162.831 20.6831 162.442 20.7479 162.442 21.0717V22.0432L162.053 22.2375C161.6 22.1727 161.147 21.8489 161.147 21.3308C161.147 20.6184 162.118 20.165 163.414 20.165C164.644 20.165 165.356 20.6831 165.356 21.9784C165.356 22.8204 165.292 24.1156 165.292 24.6985C165.292 25.1518 165.486 25.3461 165.81 25.3461C166.004 25.3461 166.198 25.2814 166.328 25.1518L166.457 25.4109C166.263 25.7995 165.745 26.0585 165.292 26.0585C164.644 26.0585 164.255 25.7347 164.191 25.1518C164.061 25.4757 163.543 26.0585 162.701 26.0585C161.665 26.2528 161.082 25.6052 161.082 24.828ZM163.219 25.4757C163.673 25.4757 164.191 25.1518 164.191 24.5042V23.2089C163.414 23.3385 162.248 23.468 162.248 24.5042C162.248 25.0871 162.636 25.4757 163.219 25.4757Z" fill="black"/>
<path d="M66.9154 34.9313C66.9154 36.7447 68.0164 37.2628 69.2469 37.2628C71.1898 37.2628 71.7079 35.9028 71.7079 34.6075C71.7079 33.377 71.7079 31.175 71.7079 30.7217C71.7079 30.3331 71.5784 30.2035 71.125 30.1388L70.4774 30.0093V29.5559L72.0317 29.6207L73.5213 29.5559V30.0093L72.8736 30.1388C72.4203 30.2035 72.2908 30.3331 72.2908 30.7217C72.2908 31.6931 72.2908 34.6722 72.2908 34.6722C72.2908 36.7447 71.0603 37.9752 68.8583 37.9752C66.7211 37.9752 65.4258 36.939 65.4258 34.9961V30.7217C65.4258 30.3331 65.2963 30.2035 64.8429 30.1388L64.1953 30.0093V29.5559L66.0087 29.6207L67.8868 29.5559V30.0093L67.304 30.1388C66.8506 30.2035 66.7211 30.3331 66.7211 30.7217V34.9313H66.9154Z" fill="black"/>
<path d="M75.7876 33.2475C76.1115 32.7941 76.8239 32.017 77.4715 32.017C78.0544 32.017 78.3782 32.4056 78.3782 32.7941C78.3782 33.118 78.1191 33.4418 77.7306 33.6361H77.601C77.601 33.6361 76.9534 33.0532 76.8239 33.0532C76.6296 33.1827 75.9819 33.5065 75.8524 33.6361V36.8095C75.8524 37.1981 75.9819 37.3276 76.4353 37.3924L76.9534 37.4571V37.8457L75.2695 37.781L73.8447 37.8457V37.4571L74.1038 37.3924C74.4924 37.2628 74.6867 37.1981 74.6867 36.8095V34.2837C74.6867 33.5065 74.6219 33.1827 74.3628 33.118L73.9095 32.9237V32.6646L75.4638 31.8875H75.7876L75.7229 33.1827L75.7876 33.2475Z" fill="black"/>
<path d="M80.6457 32.9237C80.9695 32.2761 81.6819 31.9523 82.4591 31.9523C83.6896 31.9523 84.9201 32.9237 84.9201 34.8666C84.9201 36.421 83.8191 37.9105 82.0058 37.9105C81.2286 37.9105 80.6457 37.6515 80.3867 37.522C80.1924 37.5867 79.9981 37.7162 79.8038 37.8458L79.48 37.781C79.48 37.3277 79.48 36.68 79.48 35.9029V30.3332C79.48 30.0094 79.4152 29.8151 79.2209 29.7503L78.7676 29.556V29.3617L80.3867 28.9731H80.7105V31.4989C80.7105 32.2113 80.581 32.9885 80.581 32.9885L80.6457 32.9237ZM80.6457 33.7657V36.0972C80.6457 37.0038 80.9695 37.4572 81.941 37.4572C82.9772 37.4572 83.6249 36.68 83.6249 35.0609C83.6249 33.5066 82.8477 32.7294 81.8762 32.7294C80.9695 32.7294 80.6457 33.3123 80.6457 33.7657Z" fill="black"/>
<path d="M85.8916 36.4855C85.8916 35.1255 87.3812 34.6721 89.0003 34.5426V33.7654C89.0003 33.053 88.8707 32.3406 87.964 32.3406C87.6402 32.3406 87.2516 32.4054 87.2516 32.7292V33.7007L86.8631 33.8949C86.4097 33.8302 85.9564 33.5064 85.9564 32.9883C85.9564 32.2759 86.9278 31.8225 88.2231 31.8225C89.4536 31.8225 90.166 32.3406 90.166 33.6359C90.166 34.4778 90.1012 35.7731 90.1012 36.356C90.1012 36.8093 90.2955 37.0036 90.6194 37.0036C90.8136 37.0036 91.0079 36.9388 91.1375 36.8093L91.267 37.0684C91.0727 37.457 90.5546 37.716 90.1012 37.716C89.4536 37.716 89.065 37.3922 89.0003 36.8093C88.8707 37.1331 88.3526 37.716 87.5107 37.716C86.5392 37.9103 85.8916 37.2627 85.8916 36.4855ZM88.0288 37.1331C88.4822 37.1331 89.0003 36.8093 89.0003 36.1617V34.8664C88.2231 34.9959 87.0574 35.1255 87.0574 36.1617C87.1221 36.7446 87.5107 37.1331 88.0288 37.1331Z" fill="black"/>
<path d="M93.7922 36.8095C93.7922 37.1981 93.9217 37.2628 94.3103 37.3924L94.6341 37.4571V37.8457L93.1445 37.781L91.7197 37.8457V37.4571L91.9788 37.3924C92.3674 37.2628 92.5617 37.1981 92.5617 36.8095V34.2189C92.5617 33.4418 92.4969 33.1827 92.2378 33.0532L91.7845 32.8589V32.6646L93.3388 31.8875H93.6626L93.5979 32.9237H93.7274C93.9217 32.5999 94.5693 31.9522 95.5408 31.9522C96.7713 31.9522 97.4189 32.5999 97.4189 33.8951C97.4189 34.8666 97.4189 36.7447 97.4189 36.7447C97.4189 37.1333 97.5485 37.1981 98.0018 37.3276L98.3256 37.3924V37.781L96.8361 37.7162L95.3465 37.781V37.3924L95.6703 37.3276C96.0589 37.1981 96.1884 37.1981 96.2532 36.4857C96.2532 36.2914 96.2532 35.2552 96.2532 34.6075C96.2532 34.0894 96.2532 33.5713 96.0589 33.1827C95.8646 32.8589 95.5408 32.6646 95.0874 32.6646C93.9865 32.6646 93.8569 33.377 93.8569 34.4132V36.8095H93.7922Z" fill="black"/>
<path d="M104.284 37.3922C105.126 37.3922 105.968 36.8741 105.968 35.9026C105.968 33.7654 101.758 34.3483 101.758 31.6282C101.758 30.4625 102.73 29.4263 104.608 29.4263C105.644 29.4263 106.81 29.7501 106.94 29.7501C106.94 29.7501 106.81 30.8511 106.745 31.7578H106.292C106.292 31.7578 106.098 31.0454 105.903 30.3977C105.839 30.1387 105.515 29.9444 104.608 29.9444C103.701 29.9444 103.054 30.3977 103.054 31.1749C103.054 32.9883 107.263 32.7292 107.263 35.3198C107.263 36.8741 105.968 37.8456 104.284 37.8456C102.989 37.8456 101.823 37.457 101.694 37.3922C101.694 37.0684 101.694 36.2265 101.629 34.9959L102.147 34.9312C102.147 34.9312 102.277 35.5788 102.73 36.4208C102.859 37.1332 103.637 37.3922 104.284 37.3922Z" fill="black"/>
<path d="M110.243 30.6571V32.2761H112.056L111.992 32.9885L110.243 32.7943V35.9677C110.243 36.9391 110.567 37.1982 111.15 37.1982C111.409 37.1982 111.927 37.0039 112.056 36.7448L112.251 37.0039C111.992 37.5868 111.279 37.9106 110.632 37.9106C109.725 37.9106 109.077 37.3925 109.077 36.421V32.859H108.041V32.4057C108.235 32.4057 108.624 32.2761 108.883 32.0819C109.401 31.758 109.66 31.1104 109.79 30.5923L110.243 30.6571Z" fill="black"/>
<path d="M118.791 37.1332L119.179 37.1979V37.5218L117.431 37.7808H117.107V36.9389H117.042C116.848 37.2627 116.265 37.8456 115.358 37.8456C114.128 37.8456 113.545 37.1332 113.545 35.9027C113.545 34.9312 113.545 33.2474 113.545 33.2474C113.545 32.8588 113.416 32.7292 113.027 32.5997L112.703 32.535V32.1464L114.128 32.0816L114.776 32.0168C114.711 32.6645 114.711 34.154 114.711 35.0607C114.711 36.4208 114.905 37.0684 115.877 37.0684C116.913 37.0684 117.042 36.2913 117.042 35.1903V33.3121C117.042 32.9235 116.978 32.7292 116.524 32.6645L116.136 32.5997V32.2111L117.625 32.1464L118.273 32.0816C118.273 32.0816 118.208 33.1826 118.208 34.154V36.2265C118.273 36.9389 118.338 37.0684 118.791 37.1332Z" fill="black"/>
<path d="M125.397 36.2265C125.397 36.9389 125.462 37.0684 125.915 37.1332L126.304 37.198V37.5218L124.555 37.7808H124.231V36.9389H124.167C123.713 37.6513 123.001 37.8456 122.353 37.8456C121.058 37.8456 119.957 36.8094 119.957 34.9312C119.957 33.2474 121.123 31.8873 122.742 31.8873C123.325 31.8873 123.843 32.0816 124.167 32.2112V30.8511C124.167 30.074 124.102 29.7501 123.843 29.6854L123.39 29.4911V29.2968L125.073 28.9082H125.397C125.397 28.9082 125.332 30.5921 125.332 32.1464V36.2265H125.397ZM124.231 36.097V33.8302C124.231 32.9236 123.713 32.4702 122.936 32.4702C121.641 32.4702 121.252 33.7655 121.252 34.8665C121.252 36.356 122.029 37.0684 122.936 37.0684C123.843 37.0684 124.231 36.5503 124.231 36.097Z" fill="black"/>
<path d="M127.859 34.2189C127.859 33.4417 127.794 33.1179 127.47 33.0531L127.017 32.8588V32.6645L128.636 31.8874H129.089C129.089 31.8874 129.089 32.7293 129.089 33.8951V36.8094C129.089 37.198 129.219 37.2628 129.607 37.3923L129.996 37.4571V37.8456L128.506 37.7809L127.017 37.8456V37.4571L127.34 37.3923C127.794 37.2628 127.923 37.198 127.923 36.8094V34.2189H127.859ZM128.377 29.1025C128.895 29.1025 129.283 29.4911 129.283 30.0092C129.283 30.5273 128.895 30.9159 128.377 30.9159C127.859 30.9159 127.47 30.5273 127.47 30.0092C127.535 29.4911 127.923 29.1025 128.377 29.1025Z" fill="black"/>
<path d="M133.428 31.9521C135.047 31.9521 135.759 33.1827 135.759 34.2836V34.5427H132.068C132.068 34.5427 132.068 34.6075 132.068 34.8018C132.068 36.3561 133.039 37.0685 133.946 37.0685C134.594 37.0685 135.241 36.7447 135.435 36.2913L135.694 36.6151C135.176 37.6514 134.205 37.9104 133.363 37.9104C132.068 37.9104 130.772 37.0037 130.772 34.996C130.772 33.1179 132.068 31.9521 133.428 31.9521ZM133.363 32.4055C132.586 32.4055 132.132 33.0531 132.068 34.0894L134.464 34.0246C134.464 33.1179 134.205 32.4055 133.363 32.4055Z" fill="black"/>
<path d="M137.702 36.8094C137.831 37.1332 138.155 37.4571 138.803 37.4571C139.451 37.4571 139.774 37.0685 139.774 36.5504C139.774 35.1256 136.925 35.4494 136.925 33.636C136.925 32.4703 137.896 31.9521 138.997 31.9521C139.58 31.9521 140.293 32.0169 140.681 32.2112C140.616 32.6645 140.552 33.1827 140.552 33.636H140.098L139.839 32.7293C139.774 32.535 139.386 32.3407 139.062 32.3407C138.544 32.3407 138.026 32.535 138.026 33.1179C138.026 34.4132 140.875 34.1541 140.875 36.097C140.875 37.2628 139.839 37.8456 138.738 37.8456C137.767 37.8456 136.925 37.5218 136.925 37.5218C136.925 37.3275 136.99 36.939 136.99 36.5504C136.99 36.3561 136.99 36.097 136.99 35.9027H137.443L137.702 36.8094Z" fill="black"/>
<path d="M148 37.7808L146.187 37.716L144.309 37.7808V37.3274L144.956 37.1979C145.41 37.1332 145.539 37.0036 145.539 36.615C145.539 36.615 145.604 35.5141 145.604 33.6359C145.604 31.693 145.539 30.6568 145.539 30.6568C145.474 30.2682 145.41 30.1387 144.956 30.0739L144.309 29.9444V29.491L146.575 29.5558C146.575 29.5558 147.871 29.4263 148.583 29.4263C149.684 29.4263 151.109 30.0091 151.109 31.7578C151.109 32.9235 150.332 34.3483 148.13 34.3483C147.806 34.3483 147.482 34.2835 147.482 34.2835V33.7654C147.482 33.7654 147.871 33.7654 148 33.7654C148.972 33.7654 149.684 33.1178 149.684 31.8225C149.684 30.592 149.036 30.0091 148 30.0091H147.029C146.834 30.0091 146.834 30.0739 146.834 30.2034C146.834 30.2034 146.834 31.7578 146.834 33.7007C146.834 35.6436 146.899 36.6798 146.899 36.6798C146.899 37.0036 147.029 37.1332 147.482 37.2627L148.13 37.3922V37.7808H148Z" fill="black"/>
<path d="M153.893 33.2475C154.217 32.7941 154.929 32.017 155.577 32.017C156.16 32.017 156.484 32.4056 156.484 32.7941C156.484 33.118 156.225 33.4418 155.836 33.6361H155.706C155.706 33.6361 155.059 33.0532 154.929 33.0532C154.735 33.1827 154.087 33.5065 153.958 33.6361V36.8095C153.958 37.1981 154.087 37.3276 154.541 37.3924L155.059 37.4571V37.8457L153.375 37.781L151.95 37.8457V37.4571L152.209 37.3924C152.598 37.2628 152.792 37.1981 152.792 36.8095V34.2837C152.792 33.5065 152.727 33.1827 152.468 33.118L152.015 32.9237V32.6646L153.569 31.8875H153.893L153.828 33.1827L153.893 33.2475Z" fill="black"/>
<path d="M157.196 34.996C157.196 33.3122 158.297 31.9521 160.111 31.9521C161.471 31.9521 162.831 32.9236 162.831 34.8665C162.831 36.6799 161.665 37.9104 159.916 37.9104C158.556 37.9104 157.196 37.0037 157.196 34.996ZM161.535 35.0608C161.535 33.1827 160.758 32.4703 159.981 32.4703C158.751 32.4703 158.427 33.8303 158.427 34.8665C158.427 36.6799 159.204 37.4571 159.981 37.4571C161.276 37.4571 161.535 36.097 161.535 35.0608Z" fill="black"/>
<path d="M168.27 32.8588C168.27 32.8588 168.724 33.3122 168.724 33.9598C168.724 35.1903 167.752 35.9675 166.328 35.9675C165.939 35.9675 165.55 35.9027 165.291 35.7732C165.227 35.9027 165.097 36.097 165.097 36.2913C165.097 36.6151 165.227 36.6799 166.392 36.8094L167.688 36.939C168.789 37.0685 169.371 37.5218 169.371 38.4285C169.371 39.5943 168.4 40.6953 166.198 40.6953C164.708 40.6953 163.802 40.0476 163.802 39.2057C163.802 38.4933 164.385 38.0399 164.967 37.8456V37.7161C164.449 37.5866 164.126 37.2628 164.126 36.8094C164.126 36.4208 164.449 35.9675 164.903 35.5789C164.385 35.2551 163.931 34.737 163.931 33.9598C163.931 32.7941 164.838 31.9521 166.328 31.9521C166.846 31.9521 167.429 32.0817 167.817 32.3407L169.695 32.0817V33.1827L169.566 33.2474L168.27 32.8588ZM166.587 40.3067C167.558 40.3067 168.206 39.9181 168.206 39.0762C168.206 38.6228 168.011 38.299 167.493 38.1695C166.781 38.0399 165.874 37.9752 165.421 37.9752C165.162 38.1047 164.838 38.4933 164.838 39.0762C164.903 39.9181 165.615 40.3067 166.587 40.3067ZM167.429 34.0246C167.429 32.8588 166.91 32.3407 166.328 32.3407C165.421 32.3407 165.227 33.1827 165.227 33.8303C165.227 34.996 165.745 35.5142 166.328 35.5142C167.234 35.5789 167.429 34.737 167.429 34.0246Z" fill="black"/>
<path d="M172.221 33.2475C172.545 32.7941 173.257 32.017 173.905 32.017C174.488 32.017 174.812 32.4056 174.812 32.7941C174.812 33.118 174.553 33.4418 174.164 33.6361H174.035C174.035 33.6361 173.387 33.0532 173.257 33.0532C173.063 33.1827 172.416 33.5065 172.286 33.6361V36.8095C172.286 37.1981 172.416 37.3276 172.869 37.3924L173.387 37.4571V37.8457L171.703 37.781L170.278 37.8457V37.4571L170.537 37.3924C170.926 37.2628 171.12 37.1981 171.12 36.8095V34.2837C171.12 33.5065 171.055 33.1827 170.796 33.118L170.343 32.9237V32.6646L171.897 31.8875H172.221L172.156 33.1827L172.221 33.2475Z" fill="black"/>
<path d="M175.524 36.4855C175.524 35.1255 177.014 34.6721 178.633 34.5426V33.7654C178.633 33.053 178.504 32.3406 177.597 32.3406C177.273 32.3406 176.884 32.4054 176.884 32.7292V33.7007L176.496 33.8949C176.043 33.8302 175.589 33.5064 175.589 32.9883C175.589 32.2759 176.561 31.8225 177.856 31.8225C179.086 31.8225 179.799 32.3406 179.799 33.6359C179.799 34.4778 179.734 35.7731 179.734 36.356C179.734 36.8093 179.928 37.0036 180.252 37.0036C180.446 37.0036 180.641 36.9388 180.77 36.8093L180.9 37.0684C180.706 37.457 180.187 37.716 179.734 37.716C179.086 37.716 178.698 37.3922 178.633 36.8093C178.504 37.1331 177.985 37.716 177.144 37.716C176.107 37.9103 175.524 37.2627 175.524 36.4855ZM177.662 37.1331C178.115 37.1331 178.633 36.8093 178.633 36.1617V34.8664C177.856 34.9959 176.69 35.1255 176.69 36.1617C176.69 36.7446 177.079 37.1331 177.662 37.1331Z" fill="black"/>
<path d="M186.923 32.9237C187.117 32.5351 187.764 31.9522 188.736 31.9522C189.966 31.9522 190.614 32.5999 190.614 33.8951C190.614 34.8666 190.614 36.7447 190.614 36.7447C190.614 37.0685 190.744 37.1981 191.132 37.3276L191.456 37.3924V37.781L189.966 37.7162L188.477 37.781V37.3924L188.801 37.3276C189.319 37.1981 189.384 36.939 189.384 35.6437V34.6075C189.384 33.7656 189.319 32.6646 188.218 32.6646C187.246 32.6646 186.987 33.2475 186.987 34.478V36.8095C186.987 37.1981 187.117 37.2628 187.505 37.3924L187.829 37.4571V37.8457L186.34 37.781L184.915 37.8457V37.4571L185.174 37.3924C185.692 37.1981 185.757 37.0038 185.757 35.7085V34.6075C185.757 33.7656 185.692 32.6646 184.591 32.6646C183.555 32.6646 183.361 33.3123 183.361 34.478V36.7447C183.361 37.1333 183.49 37.1981 183.879 37.3276L184.202 37.3924V37.781L182.713 37.7162L181.288 37.781V37.3924L181.547 37.3276C181.936 37.1981 182.13 37.1333 182.13 36.7447V34.1542C182.13 33.377 182.065 33.118 181.806 32.9884L181.353 32.7941V32.6646L182.907 31.8875H183.231L183.166 32.9237H183.296C183.49 32.5999 184.138 31.9522 185.109 31.9522C185.951 31.9522 186.534 32.276 186.793 32.9237H186.923Z" fill="black"/>
<path d="M22.4886 25.8644V20.2947L24.3668 20.1004C26.0506 19.9061 27.864 20.9424 27.864 22.8853C27.864 25.2168 25.2087 25.7996 23.3953 25.7996H22.4886V25.8644ZM19.5743 32.9884C19.5743 34.2837 19.7686 36.3561 18.3438 36.8742V36.939H23.0067C25.1439 36.939 27.3459 37.0038 29.3536 36.0323C31.2317 35.1256 32.7213 33.2475 32.7213 31.1103C32.7213 28.3254 30.6489 26.6416 28.1231 26.1235C29.7422 25.4111 30.9727 24.3748 30.9727 22.4319C30.9727 19.9061 28.7707 18.3518 25.0792 18.3518H18.3438V18.4166C19.7686 18.9347 19.5743 21.0071 19.5743 22.3024V32.9884ZM22.4886 34.6723V27.7425L24.4963 27.613C26.9573 27.4835 29.6126 28.6492 29.6126 31.3693C29.6126 34.0246 27.2811 35.1256 24.9497 34.9313L22.4886 34.6723Z" fill="black"/>
<path d="M27.9938 52.5471C27.9938 52.5471 25.4033 49.3737 19.3803 48.4022C13.4868 47.0422 6.42751 41.343 4.61412 33.2475C2.47692 25.2816 6.03892 16.9918 10.5724 13.106C15.1058 9.02588 19.3155 8.37824 19.186 8.31348C19.3155 8.443 15.1058 9.15541 10.7019 13.2355C6.29798 17.1213 2.93026 25.3463 5.06747 33.118C7.01038 40.9544 13.9401 46.3946 19.5745 47.6898C20.9346 47.8841 22.1651 48.2079 23.2013 48.5965C27.2167 50.0213 28.771 51.8347 28.771 51.8347L27.9938 52.5471Z" fill="black"/>
<path d="M21.7114 52.5471C21.7114 52.5471 24.302 49.3737 30.325 48.4022C36.2185 47.0422 43.2778 41.343 45.0911 33.2475C47.2283 25.2816 43.6663 16.9918 39.1329 13.106C34.5994 9.02588 30.3898 8.37824 30.5193 8.31348C30.3898 8.443 34.5994 9.15541 39.0033 13.2355C43.4073 17.1213 46.775 25.3463 44.6378 33.118C42.7596 40.9544 35.8299 46.3946 30.1955 47.6898C28.8354 47.8841 27.6049 48.2079 26.5687 48.5965C22.5534 50.0213 20.999 51.8347 20.999 51.8347L21.7114 52.5471Z" fill="black"/>
<path d="M17.6958 43.4153C17.6958 43.4153 19.3149 43.9982 19.8977 45.2934C20.6101 46.9125 20.2863 48.2726 20.2863 48.2726C20.2863 48.2726 18.6672 47.4306 18.0844 46.5239C17.3072 45.2934 17.6958 43.4153 17.6958 43.4153Z" fill="black"/>
<path d="M14.7812 50.604C14.7812 50.604 16.4651 51.1221 17.6309 50.3449C19.1204 49.4382 19.7033 48.1429 19.7033 48.1429C19.7033 48.1429 17.8899 47.8839 16.9185 48.2725C15.6232 48.7906 14.7812 50.604 14.7812 50.604Z" fill="black"/>
<path d="M15.1049 41.9905C15.1049 41.9905 16.5945 42.8324 16.9183 44.1924C17.3069 45.8763 16.7887 47.1716 16.7887 47.1716C16.7887 47.1716 15.3639 46.0706 14.9754 45.0991C14.3925 43.7391 15.1049 41.9905 15.1049 41.9905Z" fill="black"/>
<path d="M11.1543 48.4022C11.1543 48.4022 12.6439 49.1793 13.9391 48.6612C15.5582 48.0136 16.3354 46.9126 16.3354 46.9126C16.3354 46.9126 14.5868 46.3297 13.6153 46.524C12.1905 46.8478 11.1543 48.4022 11.1543 48.4022Z" fill="black"/>
<path d="M12.8384 40.1772C12.8384 40.1772 14.1336 41.2135 14.1984 42.5735C14.2632 44.2574 13.5508 45.4231 13.5508 45.4231C13.5508 45.4231 12.3202 44.1278 12.126 43.1564C11.8669 41.7316 12.8384 40.1772 12.8384 40.1772Z" fill="black"/>
<path d="M7.85156 45.6821C7.85156 45.6821 9.2116 46.7183 10.5069 46.3945C12.1907 46.0707 13.0974 45.0992 13.0974 45.0992C13.0974 45.0992 11.5431 44.2573 10.5069 44.2573C9.14684 44.3869 7.85156 45.6821 7.85156 45.6821Z" fill="black"/>
<path d="M10.8958 37.9104C10.8958 37.9104 11.9967 39.1409 11.8024 40.4362C11.6082 42.12 10.7015 43.0915 10.7015 43.0915C10.7015 43.0915 9.79477 41.6019 9.73001 40.6305C9.66524 39.2704 10.8958 37.9104 10.8958 37.9104Z" fill="black"/>
<path d="M5.13184 42.4438C5.13184 42.4438 6.23282 43.6096 7.59286 43.6096C9.27671 43.5448 10.3129 42.7677 10.3129 42.7677C10.3129 42.7677 8.9529 41.6667 7.98144 41.5372C6.6214 41.3429 5.13184 42.4438 5.13184 42.4438Z" fill="black"/>
<path d="M9.34099 35.3845C9.34099 35.3845 10.1829 36.7446 9.79433 37.9751C9.27622 39.5294 8.30477 40.3066 8.30477 40.3066C8.30477 40.3066 7.65713 38.7522 7.78666 37.7808C7.91619 36.4855 9.34099 35.3845 9.34099 35.3845Z" fill="black"/>
<path d="M3.05957 38.7522C3.05957 38.7522 3.9015 40.1122 5.19677 40.3065C6.81587 40.5656 7.98161 39.9827 7.98161 39.9827C7.98161 39.9827 6.88063 38.6874 5.90917 38.4284C4.67866 37.975 3.05957 38.7522 3.05957 38.7522Z" fill="black"/>
<path d="M8.30517 32.6646C8.30517 32.6646 8.88804 34.1541 8.30517 35.2551C7.59276 36.6799 6.42702 37.2628 6.42702 37.2628C6.42702 37.2628 6.03843 35.6437 6.36225 34.737C6.75084 33.5065 8.30517 32.6646 8.30517 32.6646Z" fill="black"/>
<path d="M1.63477 34.8664C1.63477 34.8664 2.21764 36.2912 3.44815 36.7445C4.93772 37.2626 6.16823 36.874 6.16823 36.874C6.16823 36.874 5.3263 35.4492 4.48437 34.9959C3.31862 34.3483 1.63477 34.8664 1.63477 34.8664Z" fill="black"/>
<path d="M7.6582 29.8149C7.6582 29.8149 7.98202 31.3045 7.20485 32.3407C6.2334 33.5712 5.06765 33.9598 5.06765 33.9598C5.06765 33.9598 5.00289 32.3407 5.45623 31.4988C6.03911 30.3331 7.6582 29.8149 7.6582 29.8149Z" fill="black"/>
<path d="M0.922852 30.7865C0.922852 30.7865 1.24667 32.276 2.34765 32.8589C3.70769 33.6361 4.9382 33.5065 4.9382 33.5065C4.9382 33.5065 4.35533 31.9522 3.57816 31.4341C2.60671 30.5922 0.922852 30.7865 0.922852 30.7865Z" fill="black"/>
<path d="M7.59268 26.8359C7.59268 26.8359 7.59268 28.3255 6.68599 29.1674C5.585 30.2037 4.35449 30.3979 4.35449 30.3979C4.35449 30.3979 4.54878 28.7789 5.13166 28.0664C5.97359 27.095 7.59268 26.8359 7.59268 26.8359Z" fill="black"/>
<path d="M0.857422 26.6416C0.857422 26.6416 0.922186 28.1312 1.89364 28.9083C3.12415 29.8798 4.2899 29.9446 4.2899 29.9446C4.2899 29.9446 3.96608 28.3902 3.38321 27.6778C2.54128 26.7711 0.857422 26.6416 0.857422 26.6416Z" fill="black"/>
<path d="M8.04603 23.8567C8.04603 23.8567 7.78697 25.3463 6.81552 25.9939C5.52024 26.8359 4.35449 26.7711 4.35449 26.7711C4.35449 26.7711 4.80784 25.2815 5.52024 24.6987C6.36217 23.792 8.04603 23.8567 8.04603 23.8567Z" fill="black"/>
<path d="M1.56944 22.4966C1.56944 22.4966 1.37515 23.9861 2.15231 24.8928C3.12377 25.9938 4.28952 26.3176 4.28952 26.3176C4.28952 26.3176 4.22475 24.7633 3.77141 23.9861C3.18853 22.8852 1.56944 22.4966 1.56944 22.4966Z" fill="black"/>
<path d="M8.95316 20.9425C8.95316 20.9425 8.49982 22.3026 7.39883 22.7559C6.03879 23.3388 4.87305 23.0797 4.87305 23.0797C4.87305 23.0797 5.58545 21.7197 6.29785 21.2663C7.39883 20.6187 8.95316 20.9425 8.95316 20.9425Z" fill="black"/>
<path d="M2.99508 18.5461C2.99508 18.5461 2.54174 19.9062 3.18938 20.9424C3.96654 22.1729 5.00276 22.691 5.00276 22.691C5.00276 22.691 5.26181 21.1367 4.938 20.3595C4.41989 19.1938 2.99508 18.5461 2.99508 18.5461Z" fill="black"/>
<path d="M10.4424 18.2221C10.4424 18.2221 9.72997 19.4526 8.62899 19.7116C7.20419 20.0355 6.16797 19.5821 6.16797 19.5821C6.16797 19.5821 7.07466 18.3516 7.85183 18.0926C8.95281 17.6392 10.4424 18.2221 10.4424 18.2221Z" fill="black"/>
<path d="M5.06727 14.8545C5.06727 14.8545 4.41963 16.1498 4.87298 17.186C5.39109 18.546 6.36255 19.1937 6.36255 19.1937C6.36255 19.1937 6.81589 17.7689 6.68636 16.9269C6.36255 15.7612 5.06727 14.8545 5.06727 14.8545Z" fill="black"/>
<path d="M12.32 15.761C12.32 15.761 11.478 16.862 10.3123 16.862C8.88747 16.9268 7.91602 16.3439 7.91602 16.3439C7.91602 16.3439 9.017 15.3724 9.85893 15.1782C11.0247 14.9839 12.32 15.761 12.32 15.761Z" fill="black"/>
<path d="M7.72223 11.6162C7.72223 11.6162 6.8803 12.7172 7.13935 13.8182C7.39841 15.1782 8.24033 15.9554 8.24033 15.9554C8.24033 15.9554 8.95274 14.6601 8.88797 13.8182C8.82321 12.7172 7.72223 11.6162 7.72223 11.6162Z" fill="black"/>
<path d="M14.6526 13.7536C14.6526 13.7536 13.6164 14.6603 12.5154 14.5308C11.1554 14.3365 10.3135 13.6241 10.3135 13.6241C10.3135 13.6241 11.544 12.8469 12.3859 12.8469C13.4869 12.7174 14.6526 13.7536 14.6526 13.7536Z" fill="black"/>
<path d="M10.8963 8.96094C10.8963 8.96094 9.9248 9.86763 9.9248 11.0334C9.98957 12.3934 10.6372 13.3001 10.6372 13.3001C10.6372 13.3001 11.5439 12.1344 11.6734 11.3572C11.7382 10.1914 10.8963 8.96094 10.8963 8.96094Z" fill="black"/>
<path d="M17.2416 12.1344C17.2416 12.1344 16.0758 12.8468 15.0396 12.523C13.7443 12.1344 13.0967 11.2924 13.0967 11.2924C13.0967 11.2924 14.392 10.7743 15.2339 10.8391C16.3349 10.9686 17.2416 12.1344 17.2416 12.1344Z" fill="black"/>
<path d="M14.3925 6.88867C14.3925 6.88867 13.2915 7.60107 13.0972 8.70206C12.9029 10.0621 13.3563 11.0336 13.3563 11.0336C13.3563 11.0336 14.4573 10.0621 14.6516 9.34969C15.0401 8.24871 14.3925 6.88867 14.3925 6.88867Z" fill="black"/>
<path d="M20.0274 11.0335C20.0274 11.0335 18.7969 11.4869 17.8255 11.0335C16.6597 10.4506 16.1416 9.47918 16.1416 9.47918C16.1416 9.47918 17.5016 9.15536 18.2788 9.41441C19.315 9.73823 20.0274 11.0335 20.0274 11.0335Z" fill="black"/>
<path d="M18.2139 5.52856C18.2139 5.52856 16.9834 6.04667 16.6595 7.08289C16.2062 8.37817 16.53 9.34962 16.53 9.34962C16.53 9.34962 17.6958 8.63722 18.0843 7.92482C18.6025 6.8886 18.2139 5.52856 18.2139 5.52856Z" fill="black"/>
<path d="M18.2793 8.63712C18.2793 8.63712 19.186 9.15523 19.9632 8.89617C20.9346 8.57235 21.4527 7.85995 21.4527 7.85995C21.4527 7.85995 20.4165 7.47137 19.8336 7.6009C18.9269 7.73042 18.2793 8.63712 18.2793 8.63712Z" fill="black"/>
<path d="M32.0732 43.4153C32.0732 43.4153 30.4541 43.9982 29.8712 45.2934C29.1588 46.9125 29.4826 48.2726 29.4826 48.2726C29.4826 48.2726 31.1017 47.4306 31.6846 46.5239C32.4617 45.2934 32.0732 43.4153 32.0732 43.4153Z" fill="black"/>
<path d="M34.923 50.6042C34.923 50.6042 33.2392 51.1223 32.0734 50.3452C30.5839 49.4385 30.001 48.1432 30.001 48.1432C30.001 48.1432 31.8144 47.8841 32.7858 48.2727C34.1459 48.7908 34.923 50.6042 34.923 50.6042Z" fill="black"/>
<path d="M34.5995 41.9905C34.5995 41.9905 33.1099 42.8324 32.7861 44.1924C32.3975 45.8763 32.9156 47.1716 32.9156 47.1716C32.9156 47.1716 34.3404 46.0706 34.729 45.0991C35.3119 43.7391 34.5995 41.9905 34.5995 41.9905Z" fill="black"/>
<path d="M38.6147 48.4022C38.6147 48.4022 37.1251 49.1793 35.8299 48.6612C34.2108 48.0136 33.4336 46.9126 33.4336 46.9126C33.4336 46.9126 35.1822 46.3297 36.1537 46.524C37.5785 46.8478 38.6147 48.4022 38.6147 48.4022Z" fill="black"/>
<path d="M36.9306 40.177C36.9306 40.177 35.6353 41.2132 35.5706 42.5733C35.5058 44.2571 36.2182 45.4229 36.2182 45.4229C36.2182 45.4229 37.4487 44.1276 37.643 43.1561C37.9021 41.7313 36.9306 40.177 36.9306 40.177Z" fill="black"/>
<path d="M41.8533 45.6821C41.8533 45.6821 40.4932 46.7183 39.198 46.3945C37.5141 46.0707 36.6074 45.0992 36.6074 45.0992C36.6074 45.0992 38.1617 44.2573 39.198 44.2573C40.558 44.3869 41.8533 45.6821 41.8533 45.6821Z" fill="black"/>
<path d="M38.874 37.9104C38.874 37.9104 37.773 39.1409 37.9673 40.4362C38.1616 42.12 39.0683 43.0915 39.0683 43.0915C39.0683 43.0915 39.975 41.6019 40.0398 40.6305C40.0398 39.2704 38.874 37.9104 38.874 37.9104Z" fill="black"/>
<path d="M44.5727 42.4438C44.5727 42.4438 43.4717 43.6096 42.1117 43.6096C40.4278 43.5448 39.3916 42.7677 39.3916 42.7677C39.3916 42.7677 40.7516 41.6667 41.7231 41.5372C43.0831 41.3429 44.5727 42.4438 44.5727 42.4438Z" fill="black"/>
<path d="M40.4279 35.3848C40.4279 35.3848 39.5859 36.7448 39.9745 37.9753C40.4926 39.5296 41.4641 40.3068 41.4641 40.3068C41.4641 40.3068 42.1117 38.7525 41.9822 37.781C41.7879 36.4857 40.4279 35.3848 40.4279 35.3848Z" fill="black"/>
<path d="M46.7101 38.7522C46.7101 38.7522 45.8682 40.1122 44.5729 40.3065C42.9538 40.5656 41.7881 39.9827 41.7881 39.9827C41.7881 39.9827 42.8891 38.6874 43.8605 38.4284C45.091 37.975 46.7101 38.7522 46.7101 38.7522Z" fill="black"/>
<path d="M41.4641 32.6643C41.4641 32.6643 40.8813 34.1539 41.4641 35.2549C42.1765 36.6797 43.3423 37.2625 43.3423 37.2625C43.3423 37.2625 43.7309 35.6434 43.407 34.7367C43.0185 33.5062 41.4641 32.6643 41.4641 32.6643Z" fill="black"/>
<path d="M48.135 34.8664C48.135 34.8664 47.5521 36.2912 46.3216 36.7445C44.8321 37.2626 43.6016 36.874 43.6016 36.874C43.6016 36.874 44.4435 35.4492 45.2854 34.9959C46.4512 34.3483 48.135 34.8664 48.135 34.8664Z" fill="black"/>
<path d="M42.0474 29.8149C42.0474 29.8149 41.7236 31.3045 42.5007 32.3407C43.4722 33.5712 44.6379 33.9598 44.6379 33.9598C44.6379 33.9598 44.7027 32.3407 44.2493 31.4988C43.6665 30.3331 42.0474 29.8149 42.0474 29.8149Z" fill="black"/>
<path d="M48.8474 30.7865C48.8474 30.7865 48.5236 32.276 47.4226 32.8589C46.0625 33.6361 44.832 33.5065 44.832 33.5065C44.832 33.5065 45.4149 31.9522 46.1921 31.4341C47.1635 30.5922 48.8474 30.7865 48.8474 30.7865Z" fill="black"/>
<path d="M42.1123 26.8367C42.1123 26.8367 42.1123 28.3262 43.019 29.1682C44.12 30.2044 45.3505 30.3987 45.3505 30.3987C45.3505 30.3987 45.1562 28.8443 44.5733 28.1319C43.7962 27.0957 42.1123 26.8367 42.1123 26.8367Z" fill="black"/>
<path d="M48.8475 26.6416C48.8475 26.6416 48.7828 28.1312 47.8113 28.9083C46.5808 29.8798 45.415 29.9446 45.415 29.9446C45.415 29.9446 45.7389 28.3902 46.3217 27.6778C47.1637 26.7711 48.8475 26.6416 48.8475 26.6416Z" fill="black"/>
<path d="M41.7236 23.8567C41.7236 23.8567 41.9827 25.3463 42.9541 25.9939C44.2494 26.8359 45.4152 26.7711 45.4152 26.7711C45.4152 26.7711 44.9618 25.2815 44.2494 24.6987C43.3427 23.792 41.7236 23.8567 41.7236 23.8567Z" fill="black"/>
<path d="M48.1354 22.4966C48.1354 22.4966 48.3297 23.9861 47.4878 24.8928C46.5163 25.9938 45.3506 26.3176 45.3506 26.3176C45.3506 26.3176 45.4154 24.7633 45.8687 23.9861C46.5811 22.8852 48.1354 22.4966 48.1354 22.4966Z" fill="black"/>
<path d="M40.752 20.9425C40.752 20.9425 41.2053 22.3026 42.3063 22.7559C43.6663 23.3388 44.8321 23.0797 44.8321 23.0797C44.8321 23.0797 44.1197 21.7197 43.4073 21.2663C42.371 20.6187 40.752 20.9425 40.752 20.9425Z" fill="black"/>
<path d="M46.7747 18.5461C46.7747 18.5461 47.2281 19.9062 46.5804 20.9424C45.8033 22.1729 44.767 22.691 44.767 22.691C44.767 22.691 44.508 21.1367 44.8318 20.3595C45.2852 19.1938 46.7747 18.5461 46.7747 18.5461Z" fill="black"/>
<path d="M39.3271 18.2221C39.3271 18.2221 40.0395 19.4526 41.1405 19.7116C42.5653 20.0355 43.6016 19.5821 43.6016 19.5821C43.6016 19.5821 42.6949 18.3516 41.9177 18.0926C40.752 17.6392 39.3271 18.2221 39.3271 18.2221Z" fill="black"/>
<path d="M44.7029 14.8542C44.7029 14.8542 45.3506 16.1495 44.8972 17.1857C44.3791 18.5458 43.4076 19.1934 43.4076 19.1934C43.4076 19.1934 42.9543 17.7686 43.0838 16.9267C43.4076 15.7609 44.7029 14.8542 44.7029 14.8542Z" fill="black"/>
<path d="M37.3838 15.761C37.3838 15.761 38.2905 16.862 39.3915 16.862C40.8163 16.9268 41.7877 16.3439 41.7877 16.3439C41.7877 16.3439 40.6867 15.3724 39.8448 15.1782C38.6791 14.9839 37.3838 15.761 37.3838 15.761Z" fill="black"/>
<path d="M41.9814 11.616C41.9814 11.616 42.8234 12.7169 42.5643 13.8179C42.3053 15.178 41.4633 15.9551 41.4633 15.9551C41.4633 15.9551 40.7509 14.6599 40.8157 13.8179C40.8804 12.7169 41.9814 11.616 41.9814 11.616Z" fill="black"/>
<path d="M35.1172 13.7536C35.1172 13.7536 36.1534 14.6603 37.2544 14.5308C38.6144 14.3365 39.4564 13.6241 39.4564 13.6241C39.4564 13.6241 38.2258 12.8469 37.3839 12.8469C36.2182 12.7174 35.1172 13.7536 35.1172 13.7536Z" fill="black"/>
<path d="M38.8738 8.96094C38.8738 8.96094 39.8453 9.86763 39.8453 11.0334C39.7805 12.3934 39.1329 13.3001 39.1329 13.3001C39.1329 13.3001 38.2262 12.1344 38.0966 11.3572C37.9671 10.1914 38.8738 8.96094 38.8738 8.96094Z" fill="black"/>
<path d="M32.5273 12.1344C32.5273 12.1344 33.6931 12.8468 34.7293 12.523C36.0246 12.1344 36.6722 11.2924 36.6722 11.2924C36.6722 11.2924 35.3769 10.7743 34.535 10.8391C33.434 10.9686 32.5273 12.1344 32.5273 12.1344Z" fill="black"/>
<path d="M35.3129 6.88867C35.3129 6.88867 36.4139 7.60107 36.6082 8.70206C36.8025 10.0621 36.3491 11.0336 36.3491 11.0336C36.3491 11.0336 35.2481 10.0621 35.0538 9.34969C34.6653 8.24871 35.3129 6.88867 35.3129 6.88867Z" fill="black"/>
<path d="M29.7422 11.0338C29.7422 11.0338 30.9727 11.4871 31.9442 11.0338C33.1099 10.4509 33.628 9.47942 33.628 9.47942C33.628 9.47942 32.268 9.1556 31.4908 9.41466C30.3898 9.73848 29.7422 11.0338 29.7422 11.0338Z" fill="black"/>
<path d="M31.5559 5.52881C31.5559 5.52881 32.7864 6.04692 33.1102 7.08314C33.5636 8.37841 33.2398 9.34987 33.2398 9.34987C33.2398 9.34987 32.074 8.63747 31.6854 7.92507C31.1673 6.88885 31.5559 5.52881 31.5559 5.52881Z" fill="black"/>
<path d="M31.4908 8.63712C31.4908 8.63712 30.5841 9.15523 29.8069 8.89617C28.8355 8.57235 28.3174 7.85995 28.3174 7.85995C28.3174 7.85995 29.3536 7.47137 29.9365 7.6009C30.7784 7.73042 31.4908 8.63712 31.4908 8.63712Z" fill="black"/>
<path d="M232.128 0.463756C231.934 0.658047 232.128 2.73049 231.999 2.86001C231.869 2.98954 229.667 2.79525 229.473 2.98954C229.278 3.18383 229.214 5.58009 229.538 5.77438C229.797 6.03344 231.74 5.64486 231.999 5.83915C232.128 5.96867 232.193 8.17064 231.999 8.4297C228.955 10.1136 228.566 13.9994 231.221 16.0071C230.639 16.5899 230.056 17.4966 229.602 17.4319C223.903 16.3956 218.852 13.287 213.023 13.7403C209.72 13.9994 207.065 16.3309 206.482 19.6338C205.445 25.5921 209.72 30.1903 211.857 35.2419C212.505 36.861 213.088 38.9982 212.958 40.8763H233.488V0.334229C233.423 0.334229 232.322 0.334228 232.128 0.463756ZM230.768 32.9752C230.25 35.9543 228.566 37.8972 227.206 37.8972C226.299 37.8972 225.587 37.5734 224.875 36.9905C223.968 36.2133 223.191 34.8533 223.45 34.0761C223.644 33.8171 226.105 34.2057 226.299 33.9466C226.494 33.6876 225.976 31.8094 225.716 31.5504C225.457 31.2913 223.191 31.6151 222.932 31.4208C222.608 31.1618 222.349 28.8303 222.025 28.636C222.025 28.636 219.693 28.3122 219.499 28.636C219.305 28.9598 220.276 30.9675 220.147 31.2913C219.953 31.6151 216.844 30.9675 216.844 31.3561C216.779 31.6799 217.038 33.4285 217.297 33.6876C217.621 33.9466 220.471 33.9466 220.471 33.9466C221.053 34.4 221.248 35.3714 221.248 36.2781C221.248 37.5086 220.276 38.0915 218.787 37.7029C216.002 36.9257 212.505 30.8379 210.432 26.6283C208.943 23.5196 207.971 18.4681 211.987 16.9137C214.448 16.0071 216.973 16.5252 219.564 17.3023C222.284 18.1443 225.911 19.2452 228.048 20.5405C228.566 20.8643 227.4 20.6053 229.343 24.8149C230.25 26.6931 231.157 30.8379 230.768 32.9752Z" fill="black"/>
<path d="M233.424 43.7258H212.44V47.2878H233.424" fill="black"/>
<path d="M259.977 19.6986C259.394 16.3957 256.739 14.0642 253.436 13.8051C247.542 13.3518 242.491 16.4604 236.856 17.4967C236.403 17.5614 235.82 16.59 235.237 16.0719C237.892 14.0642 237.504 10.1784 234.46 8.4945C234.266 8.23545 234.33 6.03348 234.46 5.90395C234.719 5.70966 236.662 6.09824 236.921 5.83919C237.18 5.58013 237.115 3.24864 236.986 3.05435C236.791 2.86006 234.589 3.05435 234.46 2.92482C234.33 2.79529 234.525 0.658089 234.33 0.528561C234.136 0.33427 233.035 0.399034 233.035 0.399034V41.0059H253.565C253.436 39.1277 254.019 36.9905 254.666 35.3715C256.674 30.2551 261.013 25.7217 259.977 19.6986ZM247.542 37.7029C246.053 38.1563 245.081 37.5087 245.081 36.2781C245.081 35.3067 245.211 34.4 245.858 33.9467C245.858 33.9467 248.773 33.9467 249.032 33.6876C249.356 33.4285 249.55 31.6799 249.485 31.3561C249.42 31.0323 246.312 31.6152 246.182 31.2913C245.988 30.9675 246.959 28.9598 246.83 28.636C246.636 28.3122 244.304 28.636 244.304 28.636C243.98 28.7656 243.721 31.1618 243.397 31.4209C243.074 31.6799 240.872 31.3561 240.613 31.5504C240.353 31.8094 239.835 33.6876 240.03 33.9467C240.224 34.2057 242.685 33.8171 242.879 34.0762C243.138 34.8533 242.361 36.1486 241.454 36.9905C240.807 37.5734 240.03 37.8972 239.123 37.8972C237.763 37.8972 236.079 35.9543 235.561 32.9752C235.172 30.9028 236.079 26.7579 236.986 24.7502C238.864 20.5406 237.763 20.7996 238.281 20.4758C240.418 19.1805 244.045 18.0795 246.765 17.2376C249.356 16.4604 251.946 15.9423 254.342 16.849C258.358 18.3386 257.386 23.4549 255.897 26.5636C253.824 30.7732 250.392 36.9258 247.542 37.7029Z" fill="black"/>
<path d="M232.971 43.7258H253.954V47.2878H232.971" fill="black"/>
</svg>
